<svg width="25" height="26" viewBox="0 0 25 26" fill="none" xmlns="http://www.w3.org/2000/svg">
<path d="M21.5276 10.9164H14.5831V3.97201C14.5831 3.41947 14.3636 2.88957 13.9729 2.49887C13.5822 2.10817 13.0523 1.88867 12.4998 1.88867C11.9472 1.88867 11.4173 2.10817 11.0266 2.49887C10.6359 2.88957 10.4164 3.41947 10.4164 3.97201V10.9164H3.47201C2.91947 10.9164 2.38957 11.1359 1.99887 11.5266C1.60817 11.9173 1.38867 12.4472 1.38867 12.9998C1.38867 13.5523 1.60817 14.0822 1.99887 14.4729C2.38957 14.8636 2.91947 15.0831 3.47201 15.0831H10.4164V22.0276C10.4164 22.5801 10.6359 23.11 11.0266 23.5007C11.4173 23.8914 11.9472 24.1109 12.4998 24.1109C13.0523 24.1109 13.5822 23.8914 13.9729 23.5007C14.3636 23.11 14.5831 22.5801 14.5831 22.0276V15.0831H21.5276C22.0801 15.0831 22.61 14.8636 23.0007 14.4729C23.3914 14.0822 23.6109 13.5523 23.6109 12.9998C23.6109 12.4472 23.3914 11.9173 23.0007 11.5266C22.61 11.1359 22.0801 10.9164 21.5276 10.9164Z" fill="white"/>
</svg>
