<svg xmlns="http://www.w3.org/2000/svg" width="100" height="100" viewBox="0 0 100 100" fill="none">
<path d="M37.5 7.5H17.5C14.8503 7.50791 12.3113 8.56402 10.4377 10.4377C8.56402 12.3113 7.50791 14.8503 7.5 17.5V37.5C7.50791 40.1497 8.56402 42.6887 10.4377 44.5623C12.3113 46.436 14.8503 47.4921 17.5 47.5H37.5C40.1497 47.4921 42.6887 46.436 44.5623 44.5623C46.436 42.6887 47.4921 40.1497 47.5 37.5V17.5C47.4921 14.8503 46.436 12.3113 44.5623 10.4377C42.6887 8.56402 40.1497 7.50791 37.5 7.5ZM37.5 37.5H17.5V17.5H37.5V37.5ZM37.5 52.5H17.5C14.8503 52.5079 12.3113 53.564 10.4377 55.4377C8.56402 57.3113 7.50791 59.8503 7.5 62.5V82.5C7.50791 85.1497 8.56402 87.6887 10.4377 89.5623C12.3113 91.436 14.8503 92.4921 17.5 92.5H37.5C40.1497 92.4921 42.6887 91.436 44.5623 89.5623C46.436 87.6887 47.4921 85.1497 47.5 82.5V62.5C47.4921 59.8503 46.436 57.3113 44.5623 55.4377C42.6887 53.564 40.1497 52.5079 37.5 52.5ZM37.5 82.5H17.5V62.5H37.5V82.5ZM82.5 7.5H62.5C59.8503 7.50791 57.3113 8.56402 55.4377 10.4377C53.564 12.3113 52.5079 14.8503 52.5 17.5V37.5C52.5079 40.1497 53.564 42.6887 55.4377 44.5623C57.3113 46.436 59.8503 47.4921 62.5 47.5H82.5C85.1497 47.4921 87.6887 46.436 89.5623 44.5623C91.436 42.6887 92.4921 40.1497 92.5 37.5V17.5C92.4921 14.8503 91.436 12.3113 89.5623 10.4377C87.6887 8.56402 85.1497 7.50791 82.5 7.5ZM82.5 37.5H62.5V17.5H82.5V37.5ZM25 32.5H30C30.6484 32.4556 31.2588 32.178 31.7184 31.7184C32.178 31.2588 32.4556 30.6484 32.5 30V25C32.4556 24.3516 32.178 23.7412 31.7184 23.2816C31.2588 22.822 30.6484 22.5444 30 22.5H25C24.3516 22.5444 23.7412 22.822 23.2816 23.2816C22.822 23.7412 22.5444 24.3516 22.5 25V30C22.5444 30.6484 22.822 31.2588 23.2816 31.7184C23.7412 32.178 24.3516 32.4556 25 32.5ZM25 77.5H30C30.6484 77.4556 31.2588 77.178 31.7184 76.7184C32.178 76.2588 32.4556 75.6484 32.5 75V70C32.4556 69.3516 32.178 68.7412 31.7184 68.2816C31.2588 67.822 30.6484 67.5444 30 67.5H25C24.3516 67.5444 23.7412 67.822 23.2816 68.2816C22.822 68.7412 22.5444 69.3516 22.5 70V75C22.5444 75.6484 22.822 76.2588 23.2816 76.7184C23.7412 77.178 24.3516 77.4556 25 77.5ZM70 32.5H75C75.6484 32.4556 76.2588 32.178 76.7184 31.7184C77.178 31.2588 77.4556 30.6484 77.5 30V25C77.4556 24.3516 77.178 23.7412 76.7184 23.2816C76.2588 22.822 75.6484 22.5444 75 22.5H70C69.3516 22.5444 68.7412 22.822 68.2816 23.2816C67.822 23.7412 67.5444 24.3516 67.5 25V30C67.5444 30.6484 67.822 31.2588 68.2816 31.7184C68.7412 32.178 69.3516 32.4556 70 32.5ZM55 72.5H60C60.6484 72.4556 61.2588 72.178 61.7184 71.7184C62.178 71.2588 62.4556 70.6484 62.5 70V65C62.5444 64.3516 62.822 63.7412 63.2816 63.2816C63.7412 62.822 64.3516 62.5444 65 62.5H70C70.6484 62.4556 71.2588 62.178 71.7184 61.7184C72.178 61.2588 72.4556 60.6484 72.5 60V55C72.4556 54.3516 72.178 53.7412 71.7184 53.2816C71.2588 52.822 70.6484 52.5444 70 52.5H55C54.3516 52.5444 53.7412 52.822 53.2816 53.2816C52.822 53.7412 52.5444 54.3516 52.5 55V70C52.5444 70.6484 52.822 71.2588 53.2816 71.7184C53.7412 72.178 54.3516 72.4556 55 72.5ZM90 52.5H85C84.3516 52.5444 83.7412 52.822 83.2816 53.2816C82.822 53.7412 82.5444 54.3516 82.5 55V70C82.5444 70.6484 82.822 71.2588 83.2816 71.7184C83.7412 72.178 84.3516 72.4556 85 72.5H90C90.6484 72.4556 91.2588 72.178 91.7184 71.7184C92.178 71.2588 92.4556 70.6484 92.5 70V55C92.4556 54.3516 92.178 53.7412 91.7184 53.2816C91.2588 52.822 90.6484 52.5444 90 52.5ZM60 82.5H55C54.3516 82.5444 53.7412 82.822 53.2816 83.2816C52.822 83.7412 52.5444 84.3516 52.5 85V90C52.5444 90.6484 52.822 91.2588 53.2816 91.7184C53.7412 92.178 54.3516 92.4556 55 92.5H60C60.6484 92.4556 61.2588 92.178 61.7184 91.7184C62.178 91.2588 62.4556 90.6484 62.5 90V85C62.4556 84.3516 62.178 83.7412 61.7184 83.2816C61.2588 82.822 60.6484 82.5444 60 82.5ZM90 82.5H85C84.3516 82.4556 83.7412 82.178 83.2816 81.7184C82.822 81.2588 82.5444 80.6484 82.5 80V75C82.4556 74.3516 82.178 73.7412 81.7184 73.2816C81.2588 72.822 80.6484 72.5444 80 72.5H65C64.3516 72.5444 63.7412 72.822 63.2816 73.2816C62.822 73.7412 62.5444 74.3516 62.5 75V80C62.5444 80.6484 62.822 81.2588 63.2816 81.7184C63.7412 82.178 64.3516 82.4556 65 82.5H70C70.6484 82.5444 71.2588 82.822 71.7184 83.2816C72.178 83.7412 72.4556 84.3516 72.5 85V90C72.5444 90.6484 72.822 91.2588 73.2816 91.7184C73.7412 92.178 74.3516 92.4556 75 92.5H90C90.6484 92.4556 91.2588 92.178 91.7184 91.7184C92.178 91.2588 92.4556 90.6484 92.5 90V85C92.4556 84.3516 92.178 83.7412 91.7184 83.2816C91.2588 82.822 90.6484 82.5444 90 82.5Z" fill="#F2B414"/>
</svg>
