<svg xmlns="http://www.w3.org/2000/svg" width="100" height="100" viewBox="0 0 100 100" fill="none">
<path d="M53.0972 89.9542H28.0406C27.3154 89.9542 26.6199 90.2423 26.1071 90.7551C25.5943 91.2679 25.3062 91.9634 25.3062 92.6886C25.3062 93.4138 25.5943 94.1093 26.1071 94.6221C26.6199 95.1349 27.3154 95.423 28.0406 95.423H53.0972C53.8224 95.423 54.5179 95.1349 55.0307 94.6221C55.5435 94.1093 55.8316 93.4138 55.8316 92.6886C55.8316 91.9634 55.5435 91.2679 55.0307 90.7551C54.5179 90.2423 53.8224 89.9542 53.0972 89.9542Z" fill="#0C47AD"/>
<path d="M73.5669 38.9331L73.1533 36.73L71.3039 37.9956C70.3801 38.6279 69.2642 38.9173 68.1495 38.8138C67.0348 38.7104 65.9914 38.2205 65.1997 37.4289L63.1203 35.3484C62.3292 34.5568 61.8395 33.5137 61.7359 32.3993C61.6323 31.2849 61.9213 30.1694 62.553 29.2455L63.8186 27.3952L61.6145 26.9817C60.515 26.7747 59.5222 26.1902 58.8077 25.3291C58.0932 24.4681 57.7018 23.3845 57.7011 22.2656V19.3242C57.7017 18.2051 58.0931 17.1213 58.8078 16.2601C59.5225 15.3989 60.5155 14.8143 61.6153 14.6073L63.8184 14.1941L62.5528 12.3445C62.0272 11.5701 61.7414 10.6579 61.7311 9.72203C54.4016 4.46393 45.3714 2.13516 36.4131 3.19282C28.9872 4.04164 22.0015 7.15164 16.4015 12.1018C10.8015 17.052 6.85771 23.6033 5.10402 30.8689C3.35033 38.1345 3.87142 45.7635 6.59674 52.7232C9.32207 59.6829 14.12 65.6371 20.3411 69.7798C21.8949 70.7854 23.1761 72.1594 24.0708 73.7795C24.9655 75.3997 25.446 77.2158 25.4695 79.0664V82.0517C25.4695 82.6112 25.6918 83.1477 26.0873 83.5433C26.4829 83.9389 27.0195 84.1611 27.5789 84.1611H38.627V56.1298H34.3937C32.127 56.1299 29.9392 55.2968 28.2468 53.7889C26.5543 52.2809 25.4752 50.2035 25.2147 47.9517C24.9543 45.7 25.5306 43.431 26.8341 41.5765C28.1377 39.7221 30.0774 38.4115 32.2844 37.8941V34.2175C32.278 33.9365 32.3278 33.6571 32.4309 33.3957C32.534 33.1342 32.6883 32.896 32.8848 32.695C33.0812 32.494 33.3159 32.3343 33.5749 32.2253C33.8339 32.1163 34.1122 32.0601 34.3932 32.0601C34.6742 32.0601 34.9525 32.1163 35.2115 32.2253C35.4705 32.3343 35.7052 32.494 35.9016 32.695C36.0981 32.896 36.2524 33.1342 36.3555 33.3957C36.4586 33.6571 36.5084 33.9365 36.502 34.2175V39.7602C36.502 40.0372 36.4475 40.3115 36.3415 40.5674C36.2355 40.8233 36.0801 41.0558 35.8842 41.2517C35.6883 41.4476 35.4558 41.603 35.1999 41.709C34.944 41.815 34.6697 41.8695 34.3927 41.8695C33.731 41.8658 33.0751 41.993 32.4628 42.2436C31.8504 42.4943 31.2936 42.8635 30.8244 43.3301C30.3553 43.7966 29.9829 44.3514 29.7289 44.9623C29.4748 45.5733 29.344 46.2284 29.344 46.8901C29.344 47.5518 29.4748 48.2069 29.7289 48.8179C29.9829 49.4288 30.3553 49.9835 30.8244 50.4501C31.2936 50.9167 31.8504 51.2859 32.4628 51.5365C33.0751 51.7872 33.731 51.9143 34.3927 51.9106H46.7445C47.4062 51.9143 48.0621 51.7872 48.6744 51.5365C49.2868 51.2859 49.8436 50.9167 50.3127 50.4501C50.7819 49.9835 51.1542 49.4288 51.4083 48.8179C51.6624 48.2069 51.7932 47.5518 51.7932 46.8901C51.7932 46.2284 51.6624 45.5733 51.4083 44.9623C51.1542 44.3514 50.7819 43.7966 50.3127 43.3301C49.8436 42.8635 49.2868 42.4943 48.6744 42.2436C48.0621 41.993 47.4062 41.8658 46.7445 41.8695C46.4675 41.8695 46.1932 41.815 45.9373 41.709C45.6814 41.603 45.4489 41.4476 45.253 41.2517C45.0571 41.0558 44.9017 40.8233 44.7957 40.5674C44.6897 40.3115 44.6352 40.0372 44.6352 39.7602V34.217C44.6283 33.9358 44.6778 33.656 44.7807 33.3942C44.8836 33.1323 45.0378 32.8937 45.2343 32.6924C45.4308 32.4911 45.6656 32.3311 45.9248 32.2218C46.1841 32.1126 46.4626 32.0563 46.7439 32.0563C47.0252 32.0563 47.3037 32.1126 47.563 32.2218C47.8222 32.3311 48.057 32.4911 48.2535 32.6924C48.45 32.8937 48.6042 33.1323 48.7071 33.3942C48.81 33.656 48.8595 33.9358 48.8527 34.217V37.8936C51.0596 38.411 52.9993 39.7216 54.3029 41.5761C55.6064 43.4305 56.1828 45.6995 55.9223 47.9512C55.6618 50.203 54.5827 52.2805 52.8903 53.7884C51.1978 55.2963 49.0101 56.1295 46.7433 56.1294H42.8438V84.1606H53.3837C53.6608 84.1606 53.9351 84.1061 54.191 84.0001C54.4469 83.8941 54.6794 83.7387 54.8753 83.5428C55.0712 83.3469 55.2266 83.1144 55.3326 82.8585C55.4386 82.6026 55.4931 82.3283 55.4931 82.0513L55.4945 78.9355C55.5184 77.1384 55.9907 75.3758 56.8684 73.8075C57.7461 72.2393 59.0015 70.915 60.5208 69.9548C65.1453 66.9413 69.0229 62.9141 71.8592 58.1788C74.6955 53.4435 76.4162 48.1244 76.8906 42.625C76.0519 42.3725 75.2986 41.8947 74.7126 41.2438C74.1265 40.5928 73.7303 39.7936 73.5669 38.9331Z" fill="#F2B414"/>
<path d="M97.2297 18.1395L93.822 17.5C93.5028 17.4426 93.2044 17.3024 92.9564 17.0934C92.7084 16.8844 92.5197 16.6139 92.409 16.3091C92.2535 15.8682 92.0749 15.4358 91.8739 15.0136C91.7372 14.7201 91.6797 14.3958 91.7073 14.0732C91.735 13.7505 91.8466 13.4407 92.0312 13.1747L93.9878 10.3153C94.1465 10.0833 94.2191 9.80303 94.1931 9.5231C94.167 9.24316 94.044 8.98114 93.8451 8.78235L91.7667 6.70313C91.568 6.50428 91.306 6.38118 91.026 6.35516C90.7461 6.32913 90.4659 6.40182 90.2339 6.56063L87.3737 8.51657C87.1076 8.70129 86.7978 8.81308 86.475 8.84079C86.1523 8.86851 85.8279 8.81119 85.5342 8.67454C85.1121 8.47342 84.6797 8.29478 84.2387 8.13938C83.934 8.02858 83.6637 7.8398 83.4547 7.59186C83.2457 7.34392 83.1054 7.04551 83.0478 6.72641L82.4089 3.31876C82.357 3.04244 82.2102 2.79293 81.9939 2.6134C81.7775 2.43387 81.5052 2.33562 81.224 2.33563H78.2836C78.0024 2.33559 77.7301 2.43383 77.5137 2.61337C77.2974 2.7929 77.1506 3.04242 77.0987 3.31876L76.4595 6.72641C76.4021 7.04557 76.2618 7.34404 76.0528 7.592C75.8438 7.83996 75.5734 8.02871 75.2686 8.13938C74.8277 8.29491 74.3953 8.47349 73.9731 8.67438C73.6795 8.81107 73.3552 8.86843 73.0325 8.84074C72.7099 8.81305 72.4001 8.70128 72.134 8.51657L69.2737 6.56001C69.0418 6.4012 68.7615 6.32851 68.4816 6.35453C68.2017 6.38056 67.9397 6.50365 67.7409 6.70251L65.6616 8.78126C65.4628 8.98007 65.3397 9.24213 65.3138 9.52208C65.2878 9.80203 65.3605 10.0822 65.5194 10.3142L67.4759 13.1736C67.6606 13.4396 67.7723 13.7494 67.8 14.0721C67.8276 14.3948 67.7702 14.7191 67.6334 15.0127C67.4328 15.4349 67.2542 15.8673 67.0986 16.3081C66.9879 16.613 66.7992 16.8834 66.5512 17.0924C66.3033 17.3014 66.0048 17.4416 65.6856 17.4991L62.278 18.1384C62.0017 18.1903 61.7522 18.3371 61.5727 18.5534C61.3931 18.7697 61.2949 19.042 61.2948 19.3231V22.2656C61.2948 22.5468 61.3931 22.8191 61.5726 23.0354C61.7522 23.2518 62.0016 23.3986 62.278 23.4505L65.6856 24.0895C66.0047 24.1471 66.3032 24.2874 66.5511 24.4963C66.7991 24.7053 66.9878 24.9757 67.0986 25.2805C67.2541 25.7213 67.4327 26.1538 67.6334 26.5759C67.7702 26.8695 67.8276 27.1938 67.8 27.5165C67.7723 27.8392 67.6606 28.149 67.4759 28.415L65.5194 31.2752C65.3605 31.5071 65.2878 31.7873 65.3138 32.0672C65.3398 32.3472 65.4628 32.6092 65.6616 32.808L67.7409 34.8875C67.9397 35.0862 68.2018 35.2092 68.4817 35.2352C68.7616 35.2612 69.0417 35.1886 69.2737 35.0299L72.134 33.0733C72.4001 32.8885 72.7099 32.7767 73.0327 32.749C73.3554 32.7213 73.6798 32.7787 73.9734 32.9155C74.3955 33.1165 74.828 33.2952 75.2689 33.4506C75.5736 33.5614 75.844 33.7501 76.0529 33.9981C76.2619 34.246 76.4021 34.5445 76.4595 34.8636L77.0987 38.2713C77.1506 38.5476 77.2974 38.7971 77.5138 38.9766C77.7301 39.1561 78.0024 39.2544 78.2836 39.2544H81.224C81.5052 39.2544 81.7775 39.1561 81.9938 38.9766C82.2102 38.7971 82.357 38.5476 82.4089 38.2713L83.0478 34.8636C83.1054 34.5445 83.2457 34.2461 83.4547 33.9982C83.6637 33.7502 83.934 33.5614 84.2387 33.4506C84.6797 33.2952 85.1121 33.1165 85.5342 32.9155C85.8279 32.7787 86.1523 32.7213 86.475 32.749C86.7978 32.7767 87.1077 32.8885 87.3737 33.0733L90.2344 35.0291C90.4664 35.1878 90.7466 35.2605 91.0265 35.2344C91.3064 35.2084 91.5684 35.0853 91.7672 34.8864L93.8462 32.8072C94.0451 32.6084 94.1681 32.3464 94.1942 32.0665C94.2202 31.7866 94.1476 31.5064 93.9889 31.2744L92.0312 28.4142C91.8465 28.1482 91.7347 27.8384 91.707 27.5158C91.6792 27.1931 91.7366 26.8688 91.8733 26.5752C92.0743 26.1531 92.2529 25.7207 92.4084 25.2799C92.5191 24.975 92.7078 24.7045 92.9558 24.4955C93.2037 24.2865 93.5022 24.1462 93.8214 24.0888L97.2291 23.4497C97.5054 23.3978 97.7549 23.251 97.9344 23.0347C98.1139 22.8183 98.2122 22.546 98.2122 22.2649V19.3242C98.2122 19.0432 98.114 18.771 97.9346 18.5546C97.7552 18.3383 97.5059 18.1915 97.2297 18.1395ZM79.7539 27.0049C78.5256 27.0049 77.3249 26.6406 76.3036 25.9582C75.2824 25.2758 74.4864 24.3059 74.0163 23.1711C73.5463 22.0363 73.4233 20.7877 73.6629 19.583C73.9025 18.3783 74.494 17.2717 75.3625 16.4032C76.2311 15.5347 77.3376 14.9432 78.5423 14.7036C79.747 14.4639 80.9957 14.5869 82.1305 15.057C83.2653 15.527 84.2352 16.323 84.9176 17.3443C85.6 18.3656 85.9642 19.5663 85.9642 20.7945C85.9642 22.4416 85.3099 24.0212 84.1452 25.1859C82.9806 26.3506 81.401 27.0049 79.7539 27.0049Z" fill="#0C47AD"/>
</svg>