<svg width="51" height="50" viewBox="0 0 51 50" fill="none" xmlns="http://www.w3.org/2000/svg">
<g filter="url(#filter0_iii_882_10923)">
<path d="M22.4299 5.54961L29.0924 16.9309L19.6924 19.6027C13.2002 17.4574 9.37676 13.3277 7.07051 9.08398C6.09864 7.29336 6.10645 4.00586 9.97051 4.00586H19.733C20.2783 4.00576 20.8141 4.14835 21.2872 4.41944C21.7603 4.69053 22.1543 5.07913 22.4299 5.54961Z" fill="#4686EC"/>
<path d="M22.4299 5.54961L29.0924 16.9309L19.6924 19.6027C13.2002 17.4574 9.37676 13.3277 7.07051 9.08398C6.09864 7.29336 6.10645 4.00586 9.97051 4.00586H19.733C20.2783 4.00576 20.8141 4.14835 21.2872 4.41944C21.7603 4.69053 22.1543 5.07913 22.4299 5.54961Z" fill="url(#paint0_radial_882_10923)"/>
<path d="M22.4299 5.54961L29.0924 16.9309L19.6924 19.6027C13.2002 17.4574 9.37676 13.3277 7.07051 9.08398C6.09864 7.29336 6.10645 4.00586 9.97051 4.00586H19.733C20.2783 4.00576 20.8141 4.14835 21.2872 4.41944C21.7603 4.69053 22.1543 5.07913 22.4299 5.54961Z" fill="url(#paint1_linear_882_10923)"/>
</g>
<g filter="url(#filter1_iii_882_10923)">
<path d="M28.3314 5.54922L21.6689 16.9305L31.0689 19.6023C37.5611 17.4555 41.3846 13.3258 43.6908 9.08203C44.6627 7.29141 44.6549 4.00391 40.7908 4.00391H31.0283C30.483 4.00381 29.9472 4.14639 29.4741 4.41749C29.001 4.68858 28.6071 5.07874 28.3314 5.54922Z" fill="#4686EC"/>
<path d="M28.3314 5.54922L21.6689 16.9305L31.0689 19.6023C37.5611 17.4555 41.3846 13.3258 43.6908 9.08203C44.6627 7.29141 44.6549 4.00391 40.7908 4.00391H31.0283C30.483 4.00381 29.9472 4.14639 29.4741 4.41749C29.001 4.68858 28.6071 5.07874 28.3314 5.54922Z" fill="url(#paint2_radial_882_10923)"/>
<path d="M28.3314 5.54922L21.6689 16.9305L31.0689 19.6023C37.5611 17.4555 41.3846 13.3258 43.6908 9.08203C44.6627 7.29141 44.6549 4.00391 40.7908 4.00391H31.0283C30.483 4.00381 29.9472 4.14639 29.4741 4.41749C29.001 4.68858 28.6071 5.07874 28.3314 5.54922Z" fill="url(#paint3_linear_882_10923)"/>
</g>
<path d="M28.3314 5.54922L21.6689 16.9305L31.0689 19.6023C37.5611 17.4555 41.3846 13.3258 43.6908 9.08203C44.6627 7.29141 44.6549 4.00391 40.7908 4.00391H31.0283C30.483 4.00381 29.9472 4.14639 29.4741 4.41749C29.001 4.68858 28.6071 5.07874 28.3314 5.54922Z" fill="url(#paint4_linear_882_10923)"/>
<path d="M25.5735 47.1559C34.2444 47.1559 41.2735 40.1267 41.2735 31.4559C41.2735 22.785 34.2444 15.7559 25.5735 15.7559C16.9027 15.7559 9.87354 22.785 9.87354 31.4559C9.87354 40.1267 16.9027 47.1559 25.5735 47.1559Z" fill="url(#paint5_linear_882_10923)"/>
<path d="M25.5735 47.1559C34.2444 47.1559 41.2735 40.1267 41.2735 31.4559C41.2735 22.785 34.2444 15.7559 25.5735 15.7559C16.9027 15.7559 9.87354 22.785 9.87354 31.4559C9.87354 40.1267 16.9027 47.1559 25.5735 47.1559Z" fill="url(#paint6_linear_882_10923)"/>
<path d="M25.5735 45.0309C33.0708 45.0309 39.1485 38.9531 39.1485 31.4559C39.1485 23.9586 33.0708 17.8809 25.5735 17.8809C18.0763 17.8809 11.9985 23.9586 11.9985 31.4559C11.9985 38.9531 18.0763 45.0309 25.5735 45.0309Z" fill="url(#paint7_linear_882_10923)"/>
<path d="M25.5737 43.3066C32.1192 43.3066 37.4253 38.0005 37.4253 31.4551C37.4253 24.9096 32.1192 19.6035 25.5737 19.6035C19.0283 19.6035 13.7222 24.9096 13.7222 31.4551C13.7222 38.0005 19.0283 43.3066 25.5737 43.3066Z" fill="url(#paint8_linear_882_10923)"/>
<path d="M25.5737 43.3066C32.1192 43.3066 37.4253 38.0005 37.4253 31.4551C37.4253 24.9096 32.1192 19.6035 25.5737 19.6035C19.0283 19.6035 13.7222 24.9096 13.7222 31.4551C13.7222 38.0005 19.0283 43.3066 25.5737 43.3066Z" fill="url(#paint9_radial_882_10923)"/>
<path d="M25.5737 43.3066C32.1192 43.3066 37.4253 38.0005 37.4253 31.4551C37.4253 24.9096 32.1192 19.6035 25.5737 19.6035C19.0283 19.6035 13.7222 24.9096 13.7222 31.4551C13.7222 38.0005 19.0283 43.3066 25.5737 43.3066Z" fill="url(#paint10_radial_882_10923)"/>
<g filter="url(#filter2_ii_882_10923)">
<path d="M27.4062 26.25C27.4062 25.9185 27.2746 25.6005 27.0401 25.3661C26.8057 25.1317 26.4878 25 26.1563 25H23.125C22.9592 25 22.8003 25.0658 22.6831 25.1831C22.5658 25.3003 22.5 25.4592 22.5 25.625V27.4641C22.5 27.8078 22.7781 28.0891 23.125 28.0891H23.8172C23.9208 28.0891 24.0201 28.1302 24.0934 28.2035C24.1667 28.2767 24.2078 28.3761 24.2078 28.4797V37.5C24.2078 37.7072 24.2901 37.9059 24.4366 38.0524C24.5831 38.1989 24.7819 38.2812 24.9891 38.2812H26.625C26.8322 38.2812 27.0309 38.1989 27.1774 38.0524C27.3239 37.9059 27.4062 37.7072 27.4062 37.5V26.25Z" fill="#6F3955"/>
</g>
<path d="M27.4062 26.25C27.4062 25.9185 27.2746 25.6005 27.0401 25.3661C26.8057 25.1317 26.4878 25 26.1563 25H23.125C22.9592 25 22.8003 25.0658 22.6831 25.1831C22.5658 25.3003 22.5 25.4592 22.5 25.625V27.4641C22.5 27.8078 22.7781 28.0891 23.125 28.0891H23.8172C23.9208 28.0891 24.0201 28.1302 24.0934 28.2035C24.1667 28.2767 24.2078 28.3761 24.2078 28.4797V37.5C24.2078 37.7072 24.2901 37.9059 24.4366 38.0524C24.5831 38.1989 24.7819 38.2812 24.9891 38.2812H26.625C26.8322 38.2812 27.0309 38.1989 27.1774 38.0524C27.3239 37.9059 27.4062 37.7072 27.4062 37.5V26.25Z" fill="url(#paint11_linear_882_10923)"/>
<defs>
<filter id="filter0_iii_882_10923" x="6.28174" y="3.80586" width="23.0105" height="16.0477" filterUnits="userSpaceOnUse" color-interpolation-filters="sRGB">
<feFlood flood-opacity="0" result="BackgroundImageFix"/>
<feBlend mode="normal" in="SourceGraphic" in2="BackgroundImageFix" result="shape"/>
<feColorMatrix in="SourceAlpha" type="matrix" values="0 0 0 0 0 0 0 0 0 0 0 0 0 0 0 0 0 0 127 0" result="hardAlpha"/>
<feOffset dx="-0.2" dy="-0.2"/>
<feGaussianBlur stdDeviation="0.2"/>
<feComposite in2="hardAlpha" operator="arithmetic" k2="-1" k3="1"/>
<feColorMatrix type="matrix" values="0 0 0 0 0.317647 0 0 0 0 0.458824 0 0 0 0 0.886275 0 0 0 1 0"/>
<feBlend mode="normal" in2="shape" result="effect1_innerShadow_882_10923"/>
<feColorMatrix in="SourceAlpha" type="matrix" values="0 0 0 0 0 0 0 0 0 0 0 0 0 0 0 0 0 0 127 0" result="hardAlpha"/>
<feOffset dx="0.2" dy="0.2"/>
<feGaussianBlur stdDeviation="0.2"/>
<feComposite in2="hardAlpha" operator="arithmetic" k2="-1" k3="1"/>
<feColorMatrix type="matrix" values="0 0 0 0 0.317647 0 0 0 0 0.458824 0 0 0 0 0.886275 0 0 0 1 0"/>
<feBlend mode="normal" in2="effect1_innerShadow_882_10923" result="effect2_innerShadow_882_10923"/>
<feColorMatrix in="SourceAlpha" type="matrix" values="0 0 0 0 0 0 0 0 0 0 0 0 0 0 0 0 0 0 127 0" result="hardAlpha"/>
<feOffset dx="-0.25" dy="0.25"/>
<feGaussianBlur stdDeviation="0.25"/>
<feComposite in2="hardAlpha" operator="arithmetic" k2="-1" k3="1"/>
<feColorMatrix type="matrix" values="0 0 0 0 0.372549 0 0 0 0 0.607843 0 0 0 0 0.960784 0 0 0 1 0"/>
<feBlend mode="normal" in2="effect2_innerShadow_882_10923" result="effect3_innerShadow_882_10923"/>
</filter>
<filter id="filter1_iii_882_10923" x="21.4189" y="3.80391" width="23.0105" height="16.0477" filterUnits="userSpaceOnUse" color-interpolation-filters="sRGB">
<feFlood flood-opacity="0" result="BackgroundImageFix"/>
<feBlend mode="normal" in="SourceGraphic" in2="BackgroundImageFix" result="shape"/>
<feColorMatrix in="SourceAlpha" type="matrix" values="0 0 0 0 0 0 0 0 0 0 0 0 0 0 0 0 0 0 127 0" result="hardAlpha"/>
<feOffset dx="-0.2" dy="-0.2"/>
<feGaussianBlur stdDeviation="0.2"/>
<feComposite in2="hardAlpha" operator="arithmetic" k2="-1" k3="1"/>
<feColorMatrix type="matrix" values="0 0 0 0 0.317647 0 0 0 0 0.458824 0 0 0 0 0.886275 0 0 0 1 0"/>
<feBlend mode="normal" in2="shape" result="effect1_innerShadow_882_10923"/>
<feColorMatrix in="SourceAlpha" type="matrix" values="0 0 0 0 0 0 0 0 0 0 0 0 0 0 0 0 0 0 127 0" result="hardAlpha"/>
<feOffset dx="0.2" dy="0.2"/>
<feGaussianBlur stdDeviation="0.2"/>
<feComposite in2="hardAlpha" operator="arithmetic" k2="-1" k3="1"/>
<feColorMatrix type="matrix" values="0 0 0 0 0.317647 0 0 0 0 0.458824 0 0 0 0 0.886275 0 0 0 1 0"/>
<feBlend mode="normal" in2="effect1_innerShadow_882_10923" result="effect2_innerShadow_882_10923"/>
<feColorMatrix in="SourceAlpha" type="matrix" values="0 0 0 0 0 0 0 0 0 0 0 0 0 0 0 0 0 0 127 0" result="hardAlpha"/>
<feOffset dx="-0.25" dy="0.25"/>
<feGaussianBlur stdDeviation="0.25"/>
<feComposite in2="hardAlpha" operator="arithmetic" k2="-1" k3="1"/>
<feColorMatrix type="matrix" values="0 0 0 0 0.372549 0 0 0 0 0.607843 0 0 0 0 0.960784 0 0 0 1 0"/>
<feBlend mode="normal" in2="effect2_innerShadow_882_10923" result="effect3_innerShadow_882_10923"/>
</filter>
<filter id="filter2_ii_882_10923" x="22.2" y="24.8" width="5.40625" height="13.7813" filterUnits="userSpaceOnUse" color-interpolation-filters="sRGB">
<feFlood flood-opacity="0" result="BackgroundImageFix"/>
<feBlend mode="normal" in="SourceGraphic" in2="BackgroundImageFix" result="shape"/>
<feColorMatrix in="SourceAlpha" type="matrix" values="0 0 0 0 0 0 0 0 0 0 0 0 0 0 0 0 0 0 127 0" result="hardAlpha"/>
<feOffset dx="-0.3" dy="0.3"/>
<feGaussianBlur stdDeviation="0.3"/>
<feComposite in2="hardAlpha" operator="arithmetic" k2="-1" k3="1"/>
<feColorMatrix type="matrix" values="0 0 0 0 0.392157 0 0 0 0 0.164706 0 0 0 0 0.254902 0 0 0 1 0"/>
<feBlend mode="normal" in2="shape" result="effect1_innerShadow_882_10923"/>
<feColorMatrix in="SourceAlpha" type="matrix" values="0 0 0 0 0 0 0 0 0 0 0 0 0 0 0 0 0 0 127 0" result="hardAlpha"/>
<feOffset dx="0.2" dy="-0.2"/>
<feGaussianBlur stdDeviation="0.2"/>
<feComposite in2="hardAlpha" operator="arithmetic" k2="-1" k3="1"/>
<feColorMatrix type="matrix" values="0 0 0 0 0.501961 0 0 0 0 0.333333 0 0 0 0 0.360784 0 0 0 1 0"/>
<feBlend mode="normal" in2="effect1_innerShadow_882_10923" result="effect2_innerShadow_882_10923"/>
</filter>
<radialGradient id="paint0_radial_882_10923" cx="0" cy="0" r="1" gradientUnits="userSpaceOnUse" gradientTransform="translate(20.9746 18.5015) rotate(-123.321) scale(7.193 26.863)">
<stop stop-color="#3669D9"/>
<stop offset="1" stop-color="#3669D9" stop-opacity="0"/>
</radialGradient>
<linearGradient id="paint1_linear_882_10923" x1="10.7846" y1="3.16055" x2="13.5893" y2="10.1449" gradientUnits="userSpaceOnUse">
<stop stop-color="#3D89EC"/>
<stop offset="1" stop-color="#3D89EC" stop-opacity="0"/>
</linearGradient>
<radialGradient id="paint2_radial_882_10923" cx="0" cy="0" r="1" gradientUnits="userSpaceOnUse" gradientTransform="translate(29.7871 18.5022) rotate(-57.265) scale(4.76359 10.449)">
<stop stop-color="#3669D9"/>
<stop offset="1" stop-color="#3669D9" stop-opacity="0"/>
</radialGradient>
<linearGradient id="paint3_linear_882_10923" x1="39.9768" y1="3.16016" x2="37.1721" y2="10.1445" gradientUnits="userSpaceOnUse">
<stop stop-color="#3D89EC"/>
<stop offset="1" stop-color="#3D89EC" stop-opacity="0"/>
</linearGradient>
<linearGradient id="paint4_linear_882_10923" x1="25.108" y1="11.0352" x2="25.6346" y2="11.3273" gradientUnits="userSpaceOnUse">
<stop stop-color="#1A6DD8"/>
<stop offset="1" stop-color="#1A6DD8" stop-opacity="0"/>
</linearGradient>
<linearGradient id="paint5_linear_882_10923" x1="33.9657" y1="25.8902" x2="23.0204" y2="36.6152" gradientUnits="userSpaceOnUse">
<stop stop-color="#F4C654"/>
<stop offset="1" stop-color="#DC9729"/>
</linearGradient>
<linearGradient id="paint6_linear_882_10923" x1="20.0876" y1="47.9184" x2="23.6282" y2="27.3855" gradientUnits="userSpaceOnUse">
<stop stop-color="#FA8547"/>
<stop offset="1" stop-color="#FA8547" stop-opacity="0"/>
</linearGradient>
<linearGradient id="paint7_linear_882_10923" x1="37.9423" y1="29.0824" x2="25.5735" y2="29.0824" gradientUnits="userSpaceOnUse">
<stop stop-color="#F9A842"/>
<stop offset="1" stop-color="#FAA742"/>
</linearGradient>
<linearGradient id="paint8_linear_882_10923" x1="20.0956" y1="29.952" x2="37.7737" y2="29.952" gradientUnits="userSpaceOnUse">
<stop stop-color="#FAA945"/>
<stop offset="1" stop-color="#EC9936"/>
</linearGradient>
<radialGradient id="paint9_radial_882_10923" cx="0" cy="0" r="1" gradientUnits="userSpaceOnUse" gradientTransform="translate(30.169 31.4551) rotate(180) scale(16.4464 14.0141)">
<stop offset="0.893" stop-color="#F7B44D" stop-opacity="0"/>
<stop offset="1" stop-color="#F7B44D"/>
</radialGradient>
<radialGradient id="paint10_radial_882_10923" cx="0" cy="0" r="1" gradientUnits="userSpaceOnUse" gradientTransform="translate(22.4972 31.4551) scale(15.825 13.8771)">
<stop offset="0.879" stop-color="#D2801F" stop-opacity="0"/>
<stop offset="0.983" stop-color="#D2801F"/>
</radialGradient>
<linearGradient id="paint11_linear_882_10923" x1="26.1609" y1="38.2812" x2="26.1609" y2="37.0047" gradientUnits="userSpaceOnUse">
<stop stop-color="#693B2E"/>
<stop offset="1" stop-color="#693B2E" stop-opacity="0"/>
</linearGradient>
</defs>
</svg>
