<svg width="51" height="50" viewBox="0 0 51 50" fill="none" xmlns="http://www.w3.org/2000/svg">
<g filter="url(#filter0_iii_882_10981)">
<path d="M22.4299 5.54961L29.0924 16.9309L19.6924 19.6027C13.2002 17.4574 9.37676 13.3277 7.07051 9.08398C6.09864 7.29336 6.10645 4.00586 9.97051 4.00586H19.733C20.2783 4.00576 20.8141 4.14835 21.2872 4.41944C21.7603 4.69053 22.1543 5.07913 22.4299 5.54961Z" fill="#4686EC"/>
<path d="M22.4299 5.54961L29.0924 16.9309L19.6924 19.6027C13.2002 17.4574 9.37676 13.3277 7.07051 9.08398C6.09864 7.29336 6.10645 4.00586 9.97051 4.00586H19.733C20.2783 4.00576 20.8141 4.14835 21.2872 4.41944C21.7603 4.69053 22.1543 5.07913 22.4299 5.54961Z" fill="url(#paint0_radial_882_10981)"/>
<path d="M22.4299 5.54961L29.0924 16.9309L19.6924 19.6027C13.2002 17.4574 9.37676 13.3277 7.07051 9.08398C6.09864 7.29336 6.10645 4.00586 9.97051 4.00586H19.733C20.2783 4.00576 20.8141 4.14835 21.2872 4.41944C21.7603 4.69053 22.1543 5.07913 22.4299 5.54961Z" fill="url(#paint1_linear_882_10981)"/>
</g>
<g filter="url(#filter1_iii_882_10981)">
<path d="M28.3314 5.54922L21.6689 16.9305L31.0689 19.6023C37.5611 17.4555 41.3846 13.3258 43.6908 9.08203C44.6627 7.29141 44.6549 4.00391 40.7908 4.00391H31.0283C30.483 4.00381 29.9472 4.14639 29.4741 4.41749C29.001 4.68858 28.6071 5.07874 28.3314 5.54922Z" fill="#4686EC"/>
<path d="M28.3314 5.54922L21.6689 16.9305L31.0689 19.6023C37.5611 17.4555 41.3846 13.3258 43.6908 9.08203C44.6627 7.29141 44.6549 4.00391 40.7908 4.00391H31.0283C30.483 4.00381 29.9472 4.14639 29.4741 4.41749C29.001 4.68858 28.6071 5.07874 28.3314 5.54922Z" fill="url(#paint2_radial_882_10981)"/>
<path d="M28.3314 5.54922L21.6689 16.9305L31.0689 19.6023C37.5611 17.4555 41.3846 13.3258 43.6908 9.08203C44.6627 7.29141 44.6549 4.00391 40.7908 4.00391H31.0283C30.483 4.00381 29.9472 4.14639 29.4741 4.41749C29.001 4.68858 28.6071 5.07874 28.3314 5.54922Z" fill="url(#paint3_linear_882_10981)"/>
</g>
<path d="M28.3314 5.54922L21.6689 16.9305L31.0689 19.6023C37.5611 17.4555 41.3846 13.3258 43.6908 9.08203C44.6627 7.29141 44.6549 4.00391 40.7908 4.00391H31.0283C30.483 4.00381 29.9472 4.14639 29.4741 4.41749C29.001 4.68858 28.6071 5.07874 28.3314 5.54922Z" fill="url(#paint4_linear_882_10981)"/>
<path d="M25.5735 47.1559C34.2444 47.1559 41.2735 40.1267 41.2735 31.4559C41.2735 22.785 34.2444 15.7559 25.5735 15.7559C16.9027 15.7559 9.87354 22.785 9.87354 31.4559C9.87354 40.1267 16.9027 47.1559 25.5735 47.1559Z" fill="url(#paint5_linear_882_10981)"/>
<path d="M25.5735 47.1559C34.2444 47.1559 41.2735 40.1267 41.2735 31.4559C41.2735 22.785 34.2444 15.7559 25.5735 15.7559C16.9027 15.7559 9.87354 22.785 9.87354 31.4559C9.87354 40.1267 16.9027 47.1559 25.5735 47.1559Z" fill="url(#paint6_linear_882_10981)"/>
<path d="M25.5735 45.0309C33.0708 45.0309 39.1485 38.9531 39.1485 31.4559C39.1485 23.9586 33.0708 17.8809 25.5735 17.8809C18.0763 17.8809 11.9985 23.9586 11.9985 31.4559C11.9985 38.9531 18.0763 45.0309 25.5735 45.0309Z" fill="url(#paint7_linear_882_10981)"/>
<path d="M25.5737 43.3066C32.1192 43.3066 37.4253 38.0005 37.4253 31.4551C37.4253 24.9096 32.1192 19.6035 25.5737 19.6035C19.0283 19.6035 13.7222 24.9096 13.7222 31.4551C13.7222 38.0005 19.0283 43.3066 25.5737 43.3066Z" fill="url(#paint8_linear_882_10981)"/>
<path d="M25.5737 43.3066C32.1192 43.3066 37.4253 38.0005 37.4253 31.4551C37.4253 24.9096 32.1192 19.6035 25.5737 19.6035C19.0283 19.6035 13.7222 24.9096 13.7222 31.4551C13.7222 38.0005 19.0283 43.3066 25.5737 43.3066Z" fill="url(#paint9_radial_882_10981)"/>
<path d="M25.5737 43.3066C32.1192 43.3066 37.4253 38.0005 37.4253 31.4551C37.4253 24.9096 32.1192 19.6035 25.5737 19.6035C19.0283 19.6035 13.7222 24.9096 13.7222 31.4551C13.7222 38.0005 19.0283 43.3066 25.5737 43.3066Z" fill="url(#paint10_radial_882_10981)"/>
<path d="M25.5737 43.3066C32.1192 43.3066 37.4253 38.0005 37.4253 31.4551C37.4253 24.9096 32.1192 19.6035 25.5737 19.6035C19.0283 19.6035 13.7222 24.9096 13.7222 31.4551C13.7222 38.0005 19.0283 43.3066 25.5737 43.3066Z" fill="url(#paint11_radial_882_10981)"/>
<g filter="url(#filter2_iii_882_10981)">
<path d="M27.7815 29.1797L29.4159 26.3516C29.5485 26.1193 29.6183 25.8565 29.6183 25.5891C29.6183 25.3216 29.5485 25.0588 29.4159 24.8266C29.2833 24.5943 29.0915 24.4013 28.8602 24.2671C28.6289 24.1329 28.3661 24.0623 28.0987 24.0625H23.2659C22.8612 24.0625 22.4731 24.2233 22.187 24.5094C21.9008 24.7955 21.7401 25.1836 21.7401 25.5883C21.7401 25.9929 21.9008 26.381 22.187 26.6672C22.4731 26.9533 22.8612 27.1141 23.2659 27.1141H24.7846C24.853 27.1141 24.9202 27.1321 24.9795 27.1662C25.0388 27.2004 25.088 27.2495 25.1224 27.3086C25.1567 27.3678 25.1749 27.435 25.1751 27.5034C25.1753 27.5718 25.1576 27.639 25.1237 27.6984L24.2831 29.1641C24.0681 29.4294 23.9502 29.7601 23.9487 30.1016C23.9487 30.9437 24.6331 31.6266 25.4752 31.6266C26.4284 31.6266 27.2065 32.4047 27.2065 33.3578C27.2065 34.3109 26.4284 35.0906 25.4752 35.0906C25.1198 35.0911 24.773 34.9813 24.4826 34.7765C24.1921 34.5717 23.9723 34.2818 23.8534 33.9469C23.7173 33.5687 23.4373 33.2597 23.0744 33.087C22.7115 32.9143 22.2951 32.892 21.9159 33.025C21.7275 33.0908 21.5541 33.1933 21.4055 33.3266C21.257 33.4599 21.1364 33.6212 21.0507 33.8014C20.965 33.9816 20.9158 34.177 20.9061 34.3763C20.8964 34.5756 20.9262 34.7748 20.994 34.9625C21.3261 35.8855 21.9341 36.684 22.7354 37.2498C23.5368 37.8155 24.4928 38.1211 25.4737 38.125C26.7375 38.1242 27.9493 37.6219 28.8431 36.7284C29.7369 35.8349 30.2396 34.6232 30.2409 33.3594C30.2388 32.5067 30.0095 31.67 29.5767 30.9354C29.1439 30.2008 28.5232 29.5948 27.7784 29.1797" fill="#6C3F48"/>
</g>
<defs>
<filter id="filter0_iii_882_10981" x="6.28174" y="3.80586" width="23.0105" height="16.0477" filterUnits="userSpaceOnUse" color-interpolation-filters="sRGB">
<feFlood flood-opacity="0" result="BackgroundImageFix"/>
<feBlend mode="normal" in="SourceGraphic" in2="BackgroundImageFix" result="shape"/>
<feColorMatrix in="SourceAlpha" type="matrix" values="0 0 0 0 0 0 0 0 0 0 0 0 0 0 0 0 0 0 127 0" result="hardAlpha"/>
<feOffset dx="-0.2" dy="-0.2"/>
<feGaussianBlur stdDeviation="0.2"/>
<feComposite in2="hardAlpha" operator="arithmetic" k2="-1" k3="1"/>
<feColorMatrix type="matrix" values="0 0 0 0 0.317647 0 0 0 0 0.458824 0 0 0 0 0.886275 0 0 0 1 0"/>
<feBlend mode="normal" in2="shape" result="effect1_innerShadow_882_10981"/>
<feColorMatrix in="SourceAlpha" type="matrix" values="0 0 0 0 0 0 0 0 0 0 0 0 0 0 0 0 0 0 127 0" result="hardAlpha"/>
<feOffset dx="0.2" dy="0.2"/>
<feGaussianBlur stdDeviation="0.2"/>
<feComposite in2="hardAlpha" operator="arithmetic" k2="-1" k3="1"/>
<feColorMatrix type="matrix" values="0 0 0 0 0.317647 0 0 0 0 0.458824 0 0 0 0 0.886275 0 0 0 1 0"/>
<feBlend mode="normal" in2="effect1_innerShadow_882_10981" result="effect2_innerShadow_882_10981"/>
<feColorMatrix in="SourceAlpha" type="matrix" values="0 0 0 0 0 0 0 0 0 0 0 0 0 0 0 0 0 0 127 0" result="hardAlpha"/>
<feOffset dx="-0.25" dy="0.25"/>
<feGaussianBlur stdDeviation="0.25"/>
<feComposite in2="hardAlpha" operator="arithmetic" k2="-1" k3="1"/>
<feColorMatrix type="matrix" values="0 0 0 0 0.372549 0 0 0 0 0.607843 0 0 0 0 0.960784 0 0 0 1 0"/>
<feBlend mode="normal" in2="effect2_innerShadow_882_10981" result="effect3_innerShadow_882_10981"/>
</filter>
<filter id="filter1_iii_882_10981" x="21.4189" y="3.80391" width="23.0105" height="16.0477" filterUnits="userSpaceOnUse" color-interpolation-filters="sRGB">
<feFlood flood-opacity="0" result="BackgroundImageFix"/>
<feBlend mode="normal" in="SourceGraphic" in2="BackgroundImageFix" result="shape"/>
<feColorMatrix in="SourceAlpha" type="matrix" values="0 0 0 0 0 0 0 0 0 0 0 0 0 0 0 0 0 0 127 0" result="hardAlpha"/>
<feOffset dx="-0.2" dy="-0.2"/>
<feGaussianBlur stdDeviation="0.2"/>
<feComposite in2="hardAlpha" operator="arithmetic" k2="-1" k3="1"/>
<feColorMatrix type="matrix" values="0 0 0 0 0.317647 0 0 0 0 0.458824 0 0 0 0 0.886275 0 0 0 1 0"/>
<feBlend mode="normal" in2="shape" result="effect1_innerShadow_882_10981"/>
<feColorMatrix in="SourceAlpha" type="matrix" values="0 0 0 0 0 0 0 0 0 0 0 0 0 0 0 0 0 0 127 0" result="hardAlpha"/>
<feOffset dx="0.2" dy="0.2"/>
<feGaussianBlur stdDeviation="0.2"/>
<feComposite in2="hardAlpha" operator="arithmetic" k2="-1" k3="1"/>
<feColorMatrix type="matrix" values="0 0 0 0 0.317647 0 0 0 0 0.458824 0 0 0 0 0.886275 0 0 0 1 0"/>
<feBlend mode="normal" in2="effect1_innerShadow_882_10981" result="effect2_innerShadow_882_10981"/>
<feColorMatrix in="SourceAlpha" type="matrix" values="0 0 0 0 0 0 0 0 0 0 0 0 0 0 0 0 0 0 127 0" result="hardAlpha"/>
<feOffset dx="-0.25" dy="0.25"/>
<feGaussianBlur stdDeviation="0.25"/>
<feComposite in2="hardAlpha" operator="arithmetic" k2="-1" k3="1"/>
<feColorMatrix type="matrix" values="0 0 0 0 0.372549 0 0 0 0 0.607843 0 0 0 0 0.960784 0 0 0 1 0"/>
<feBlend mode="normal" in2="effect2_innerShadow_882_10981" result="effect3_innerShadow_882_10981"/>
</filter>
<filter id="filter2_iii_882_10981" x="20.6043" y="23.8625" width="9.83643" height="14.5625" filterUnits="userSpaceOnUse" color-interpolation-filters="sRGB">
<feFlood flood-opacity="0" result="BackgroundImageFix"/>
<feBlend mode="normal" in="SourceGraphic" in2="BackgroundImageFix" result="shape"/>
<feColorMatrix in="SourceAlpha" type="matrix" values="0 0 0 0 0 0 0 0 0 0 0 0 0 0 0 0 0 0 127 0" result="hardAlpha"/>
<feOffset dx="-0.3" dy="0.3"/>
<feGaussianBlur stdDeviation="0.3"/>
<feComposite in2="hardAlpha" operator="arithmetic" k2="-1" k3="1"/>
<feColorMatrix type="matrix" values="0 0 0 0 0.270588 0 0 0 0 0.113725 0 0 0 0 0.0745098 0 0 0 1 0"/>
<feBlend mode="normal" in2="shape" result="effect1_innerShadow_882_10981"/>
<feColorMatrix in="SourceAlpha" type="matrix" values="0 0 0 0 0 0 0 0 0 0 0 0 0 0 0 0 0 0 127 0" result="hardAlpha"/>
<feOffset dx="0.2" dy="-0.2"/>
<feGaussianBlur stdDeviation="0.2"/>
<feComposite in2="hardAlpha" operator="arithmetic" k2="-1" k3="1"/>
<feColorMatrix type="matrix" values="0 0 0 0 0.490196 0 0 0 0 0.352941 0 0 0 0 0.321569 0 0 0 1 0"/>
<feBlend mode="normal" in2="effect1_innerShadow_882_10981" result="effect2_innerShadow_882_10981"/>
<feColorMatrix in="SourceAlpha" type="matrix" values="0 0 0 0 0 0 0 0 0 0 0 0 0 0 0 0 0 0 127 0" result="hardAlpha"/>
<feOffset dx="0.2" dy="0.2"/>
<feGaussianBlur stdDeviation="0.2"/>
<feComposite in2="hardAlpha" operator="arithmetic" k2="-1" k3="1"/>
<feColorMatrix type="matrix" values="0 0 0 0 0.270588 0 0 0 0 0.113725 0 0 0 0 0.0745098 0 0 0 1 0"/>
<feBlend mode="normal" in2="effect2_innerShadow_882_10981" result="effect3_innerShadow_882_10981"/>
</filter>
<radialGradient id="paint0_radial_882_10981" cx="0" cy="0" r="1" gradientUnits="userSpaceOnUse" gradientTransform="translate(20.9746 18.5015) rotate(-123.321) scale(7.193 26.863)">
<stop stop-color="#3669D9"/>
<stop offset="1" stop-color="#3669D9" stop-opacity="0"/>
</radialGradient>
<linearGradient id="paint1_linear_882_10981" x1="10.7846" y1="3.16055" x2="13.5893" y2="10.1449" gradientUnits="userSpaceOnUse">
<stop stop-color="#3D89EC"/>
<stop offset="1" stop-color="#3D89EC" stop-opacity="0"/>
</linearGradient>
<radialGradient id="paint2_radial_882_10981" cx="0" cy="0" r="1" gradientUnits="userSpaceOnUse" gradientTransform="translate(29.7871 18.5022) rotate(-57.265) scale(4.76359 10.449)">
<stop stop-color="#3669D9"/>
<stop offset="1" stop-color="#3669D9" stop-opacity="0"/>
</radialGradient>
<linearGradient id="paint3_linear_882_10981" x1="39.9768" y1="3.16016" x2="37.1721" y2="10.1445" gradientUnits="userSpaceOnUse">
<stop stop-color="#3D89EC"/>
<stop offset="1" stop-color="#3D89EC" stop-opacity="0"/>
</linearGradient>
<linearGradient id="paint4_linear_882_10981" x1="25.108" y1="11.0352" x2="25.6346" y2="11.3273" gradientUnits="userSpaceOnUse">
<stop stop-color="#1A6DD8"/>
<stop offset="1" stop-color="#1A6DD8" stop-opacity="0"/>
</linearGradient>
<linearGradient id="paint5_linear_882_10981" x1="37.6829" y1="23.3402" x2="23.0782" y2="36.6934" gradientUnits="userSpaceOnUse">
<stop stop-color="#F6BC7F"/>
<stop offset="1" stop-color="#A76740"/>
</linearGradient>
<linearGradient id="paint6_linear_882_10981" x1="20.0876" y1="47.9184" x2="23.6282" y2="27.3855" gradientUnits="userSpaceOnUse">
<stop stop-color="#B05B5B"/>
<stop offset="1" stop-color="#B05B5B" stop-opacity="0"/>
</linearGradient>
<linearGradient id="paint7_linear_882_10981" x1="37.9423" y1="29.0824" x2="25.5735" y2="29.0824" gradientUnits="userSpaceOnUse">
<stop stop-color="#CD8858"/>
<stop offset="1" stop-color="#D28D59"/>
</linearGradient>
<linearGradient id="paint8_linear_882_10981" x1="18.1347" y1="34.5348" x2="37.8581" y2="28.566" gradientUnits="userSpaceOnUse">
<stop stop-color="#D38E5F"/>
<stop offset="1" stop-color="#BE794E"/>
</linearGradient>
<radialGradient id="paint9_radial_882_10981" cx="0" cy="0" r="1" gradientUnits="userSpaceOnUse" gradientTransform="translate(30.0713 29.6587) rotate(156.644) scale(17.8078 15.1742)">
<stop offset="0.837" stop-color="#E5AC75" stop-opacity="0"/>
<stop offset="1" stop-color="#E5AC75"/>
</radialGradient>
<radialGradient id="paint10_radial_882_10981" cx="0" cy="0" r="1" gradientUnits="userSpaceOnUse" gradientTransform="translate(24.06 32.8602) rotate(-41.294) scale(14.0062 13.4487)">
<stop offset="0.91" stop-color="#B36441" stop-opacity="0"/>
<stop offset="1" stop-color="#B36441"/>
</radialGradient>
<radialGradient id="paint11_radial_882_10981" cx="0" cy="0" r="1" gradientUnits="userSpaceOnUse" gradientTransform="translate(25.2315 30.4676) rotate(37.9308) scale(13.1859 14.9427)">
<stop offset="0.926" stop-color="#AB662B" stop-opacity="0"/>
<stop offset="1" stop-color="#AB662B"/>
</radialGradient>
</defs>
</svg>
