<svg width="51" height="50" viewBox="0 0 51 50" fill="none" xmlns="http://www.w3.org/2000/svg">
<g filter="url(#filter0_iii_882_10952)">
<path d="M22.4299 5.54961L29.0924 16.9309L19.6924 19.6027C13.2002 17.4574 9.37676 13.3277 7.07051 9.08398C6.09864 7.29336 6.10645 4.00586 9.97051 4.00586H19.733C20.2783 4.00576 20.8141 4.14835 21.2872 4.41944C21.7603 4.69053 22.1543 5.07913 22.4299 5.54961Z" fill="#4686EC"/>
<path d="M22.4299 5.54961L29.0924 16.9309L19.6924 19.6027C13.2002 17.4574 9.37676 13.3277 7.07051 9.08398C6.09864 7.29336 6.10645 4.00586 9.97051 4.00586H19.733C20.2783 4.00576 20.8141 4.14835 21.2872 4.41944C21.7603 4.69053 22.1543 5.07913 22.4299 5.54961Z" fill="url(#paint0_radial_882_10952)"/>
<path d="M22.4299 5.54961L29.0924 16.9309L19.6924 19.6027C13.2002 17.4574 9.37676 13.3277 7.07051 9.08398C6.09864 7.29336 6.10645 4.00586 9.97051 4.00586H19.733C20.2783 4.00576 20.8141 4.14835 21.2872 4.41944C21.7603 4.69053 22.1543 5.07913 22.4299 5.54961Z" fill="url(#paint1_linear_882_10952)"/>
</g>
<g filter="url(#filter1_iii_882_10952)">
<path d="M28.3314 5.54922L21.6689 16.9305L31.0689 19.6023C37.5611 17.4555 41.3846 13.3258 43.6908 9.08203C44.6627 7.29141 44.6549 4.00391 40.7908 4.00391H31.0283C30.483 4.00381 29.9472 4.14639 29.4741 4.41749C29.001 4.68858 28.6071 5.07874 28.3314 5.54922Z" fill="#4686EC"/>
<path d="M28.3314 5.54922L21.6689 16.9305L31.0689 19.6023C37.5611 17.4555 41.3846 13.3258 43.6908 9.08203C44.6627 7.29141 44.6549 4.00391 40.7908 4.00391H31.0283C30.483 4.00381 29.9472 4.14639 29.4741 4.41749C29.001 4.68858 28.6071 5.07874 28.3314 5.54922Z" fill="url(#paint2_radial_882_10952)"/>
<path d="M28.3314 5.54922L21.6689 16.9305L31.0689 19.6023C37.5611 17.4555 41.3846 13.3258 43.6908 9.08203C44.6627 7.29141 44.6549 4.00391 40.7908 4.00391H31.0283C30.483 4.00381 29.9472 4.14639 29.4741 4.41749C29.001 4.68858 28.6071 5.07874 28.3314 5.54922Z" fill="url(#paint3_linear_882_10952)"/>
</g>
<path d="M28.3314 5.54922L21.6689 16.9305L31.0689 19.6023C37.5611 17.4555 41.3846 13.3258 43.6908 9.08203C44.6627 7.29141 44.6549 4.00391 40.7908 4.00391H31.0283C30.483 4.00381 29.9472 4.14639 29.4741 4.41749C29.001 4.68858 28.6071 5.07874 28.3314 5.54922Z" fill="url(#paint4_linear_882_10952)"/>
<path d="M25.5735 47.1559C34.2444 47.1559 41.2735 40.1267 41.2735 31.4559C41.2735 22.785 34.2444 15.7559 25.5735 15.7559C16.9027 15.7559 9.87354 22.785 9.87354 31.4559C9.87354 40.1267 16.9027 47.1559 25.5735 47.1559Z" fill="url(#paint5_linear_882_10952)"/>
<path d="M25.5735 47.1559C34.2444 47.1559 41.2735 40.1267 41.2735 31.4559C41.2735 22.785 34.2444 15.7559 25.5735 15.7559C16.9027 15.7559 9.87354 22.785 9.87354 31.4559C9.87354 40.1267 16.9027 47.1559 25.5735 47.1559Z" fill="url(#paint6_linear_882_10952)"/>
<path d="M25.5735 45.0309C33.0708 45.0309 39.1485 38.9531 39.1485 31.4559C39.1485 23.9586 33.0708 17.8809 25.5735 17.8809C18.0763 17.8809 11.9985 23.9586 11.9985 31.4559C11.9985 38.9531 18.0763 45.0309 25.5735 45.0309Z" fill="url(#paint7_linear_882_10952)"/>
<path d="M25.5737 43.3066C32.1192 43.3066 37.4253 38.0005 37.4253 31.4551C37.4253 24.9096 32.1192 19.6035 25.5737 19.6035C19.0283 19.6035 13.7222 24.9096 13.7222 31.4551C13.7222 38.0005 19.0283 43.3066 25.5737 43.3066Z" fill="url(#paint8_linear_882_10952)"/>
<path d="M25.5737 43.3066C32.1192 43.3066 37.4253 38.0005 37.4253 31.4551C37.4253 24.9096 32.1192 19.6035 25.5737 19.6035C19.0283 19.6035 13.7222 24.9096 13.7222 31.4551C13.7222 38.0005 19.0283 43.3066 25.5737 43.3066Z" fill="url(#paint9_radial_882_10952)"/>
<path d="M25.5737 43.3066C32.1192 43.3066 37.4253 38.0005 37.4253 31.4551C37.4253 24.9096 32.1192 19.6035 25.5737 19.6035C19.0283 19.6035 13.7222 24.9096 13.7222 31.4551C13.7222 38.0005 19.0283 43.3066 25.5737 43.3066Z" fill="url(#paint10_radial_882_10952)"/>
<path d="M25.5737 43.3066C32.1192 43.3066 37.4253 38.0005 37.4253 31.4551C37.4253 24.9096 32.1192 19.6035 25.5737 19.6035C19.0283 19.6035 13.7222 24.9096 13.7222 31.4551C13.7222 38.0005 19.0283 43.3066 25.5737 43.3066Z" fill="url(#paint11_radial_882_10952)"/>
<g filter="url(#filter2_ii_882_10952)">
<path d="M28.6831 38.3926H22.48C22.1811 38.3933 21.8883 38.3083 21.6363 38.1477C21.3843 37.9871 21.1836 37.7575 21.0581 37.4863C20.9278 37.2176 20.8777 36.917 20.9137 36.6205C20.9497 36.324 21.0704 36.0442 21.2612 35.8145L26.4175 29.4863C26.8238 28.9863 26.6363 28.4551 26.5738 28.2988C26.5011 28.1169 26.3763 27.9606 26.2151 27.8494C26.0538 27.7382 25.8633 27.6771 25.6675 27.6738H25.5894C25.0894 27.6738 24.6363 27.9082 24.3394 28.3145C23.8394 29.0176 22.855 29.1895 22.1363 28.6895C21.9667 28.5696 21.8225 28.4175 21.7119 28.2418C21.6013 28.0661 21.5264 27.8704 21.4916 27.6657C21.4568 27.461 21.4627 27.2515 21.5089 27.0491C21.5552 26.8468 21.6409 26.6555 21.7613 26.4863C22.6363 25.252 24.0581 24.5176 25.5738 24.5176H25.7769C27.3706 24.5957 28.7613 25.5488 29.4175 27.002C30.0894 28.502 29.8706 30.2051 28.8394 31.4707L25.7925 35.2207H28.6675C29.5425 35.2207 30.2456 35.9238 30.2456 36.7988C30.2456 37.6738 29.5581 38.3926 28.6831 38.3926Z" fill="#6A6372"/>
</g>
<defs>
<filter id="filter0_iii_882_10952" x="6.28174" y="3.80586" width="23.0105" height="16.0477" filterUnits="userSpaceOnUse" color-interpolation-filters="sRGB">
<feFlood flood-opacity="0" result="BackgroundImageFix"/>
<feBlend mode="normal" in="SourceGraphic" in2="BackgroundImageFix" result="shape"/>
<feColorMatrix in="SourceAlpha" type="matrix" values="0 0 0 0 0 0 0 0 0 0 0 0 0 0 0 0 0 0 127 0" result="hardAlpha"/>
<feOffset dx="-0.2" dy="-0.2"/>
<feGaussianBlur stdDeviation="0.2"/>
<feComposite in2="hardAlpha" operator="arithmetic" k2="-1" k3="1"/>
<feColorMatrix type="matrix" values="0 0 0 0 0.317647 0 0 0 0 0.458824 0 0 0 0 0.886275 0 0 0 1 0"/>
<feBlend mode="normal" in2="shape" result="effect1_innerShadow_882_10952"/>
<feColorMatrix in="SourceAlpha" type="matrix" values="0 0 0 0 0 0 0 0 0 0 0 0 0 0 0 0 0 0 127 0" result="hardAlpha"/>
<feOffset dx="0.2" dy="0.2"/>
<feGaussianBlur stdDeviation="0.2"/>
<feComposite in2="hardAlpha" operator="arithmetic" k2="-1" k3="1"/>
<feColorMatrix type="matrix" values="0 0 0 0 0.317647 0 0 0 0 0.458824 0 0 0 0 0.886275 0 0 0 1 0"/>
<feBlend mode="normal" in2="effect1_innerShadow_882_10952" result="effect2_innerShadow_882_10952"/>
<feColorMatrix in="SourceAlpha" type="matrix" values="0 0 0 0 0 0 0 0 0 0 0 0 0 0 0 0 0 0 127 0" result="hardAlpha"/>
<feOffset dx="-0.25" dy="0.25"/>
<feGaussianBlur stdDeviation="0.25"/>
<feComposite in2="hardAlpha" operator="arithmetic" k2="-1" k3="1"/>
<feColorMatrix type="matrix" values="0 0 0 0 0.372549 0 0 0 0 0.607843 0 0 0 0 0.960784 0 0 0 1 0"/>
<feBlend mode="normal" in2="effect2_innerShadow_882_10952" result="effect3_innerShadow_882_10952"/>
</filter>
<filter id="filter1_iii_882_10952" x="21.4189" y="3.80391" width="23.0105" height="16.0477" filterUnits="userSpaceOnUse" color-interpolation-filters="sRGB">
<feFlood flood-opacity="0" result="BackgroundImageFix"/>
<feBlend mode="normal" in="SourceGraphic" in2="BackgroundImageFix" result="shape"/>
<feColorMatrix in="SourceAlpha" type="matrix" values="0 0 0 0 0 0 0 0 0 0 0 0 0 0 0 0 0 0 127 0" result="hardAlpha"/>
<feOffset dx="-0.2" dy="-0.2"/>
<feGaussianBlur stdDeviation="0.2"/>
<feComposite in2="hardAlpha" operator="arithmetic" k2="-1" k3="1"/>
<feColorMatrix type="matrix" values="0 0 0 0 0.317647 0 0 0 0 0.458824 0 0 0 0 0.886275 0 0 0 1 0"/>
<feBlend mode="normal" in2="shape" result="effect1_innerShadow_882_10952"/>
<feColorMatrix in="SourceAlpha" type="matrix" values="0 0 0 0 0 0 0 0 0 0 0 0 0 0 0 0 0 0 127 0" result="hardAlpha"/>
<feOffset dx="0.2" dy="0.2"/>
<feGaussianBlur stdDeviation="0.2"/>
<feComposite in2="hardAlpha" operator="arithmetic" k2="-1" k3="1"/>
<feColorMatrix type="matrix" values="0 0 0 0 0.317647 0 0 0 0 0.458824 0 0 0 0 0.886275 0 0 0 1 0"/>
<feBlend mode="normal" in2="effect1_innerShadow_882_10952" result="effect2_innerShadow_882_10952"/>
<feColorMatrix in="SourceAlpha" type="matrix" values="0 0 0 0 0 0 0 0 0 0 0 0 0 0 0 0 0 0 127 0" result="hardAlpha"/>
<feOffset dx="-0.25" dy="0.25"/>
<feGaussianBlur stdDeviation="0.25"/>
<feComposite in2="hardAlpha" operator="arithmetic" k2="-1" k3="1"/>
<feColorMatrix type="matrix" values="0 0 0 0 0.372549 0 0 0 0 0.607843 0 0 0 0 0.960784 0 0 0 1 0"/>
<feBlend mode="normal" in2="effect2_innerShadow_882_10952" result="effect3_innerShadow_882_10952"/>
</filter>
<filter id="filter2_ii_882_10952" x="20.6023" y="24.3176" width="9.84326" height="14.375" filterUnits="userSpaceOnUse" color-interpolation-filters="sRGB">
<feFlood flood-opacity="0" result="BackgroundImageFix"/>
<feBlend mode="normal" in="SourceGraphic" in2="BackgroundImageFix" result="shape"/>
<feColorMatrix in="SourceAlpha" type="matrix" values="0 0 0 0 0 0 0 0 0 0 0 0 0 0 0 0 0 0 127 0" result="hardAlpha"/>
<feOffset dx="-0.3" dy="0.3"/>
<feGaussianBlur stdDeviation="0.3"/>
<feComposite in2="hardAlpha" operator="arithmetic" k2="-1" k3="1"/>
<feColorMatrix type="matrix" values="0 0 0 0 0.286275 0 0 0 0 0.223529 0 0 0 0 0.345098 0 0 0 1 0"/>
<feBlend mode="normal" in2="shape" result="effect1_innerShadow_882_10952"/>
<feColorMatrix in="SourceAlpha" type="matrix" values="0 0 0 0 0 0 0 0 0 0 0 0 0 0 0 0 0 0 127 0" result="hardAlpha"/>
<feOffset dx="0.2" dy="-0.2"/>
<feGaussianBlur stdDeviation="0.2"/>
<feComposite in2="hardAlpha" operator="arithmetic" k2="-1" k3="1"/>
<feColorMatrix type="matrix" values="0 0 0 0 0.482353 0 0 0 0 0.47451 0 0 0 0 0.490196 0 0 0 1 0"/>
<feBlend mode="normal" in2="effect1_innerShadow_882_10952" result="effect2_innerShadow_882_10952"/>
</filter>
<radialGradient id="paint0_radial_882_10952" cx="0" cy="0" r="1" gradientUnits="userSpaceOnUse" gradientTransform="translate(20.9746 18.5015) rotate(-123.321) scale(7.193 26.863)">
<stop stop-color="#3669D9"/>
<stop offset="1" stop-color="#3669D9" stop-opacity="0"/>
</radialGradient>
<linearGradient id="paint1_linear_882_10952" x1="10.7846" y1="3.16055" x2="13.5893" y2="10.1449" gradientUnits="userSpaceOnUse">
<stop stop-color="#3D89EC"/>
<stop offset="1" stop-color="#3D89EC" stop-opacity="0"/>
</linearGradient>
<radialGradient id="paint2_radial_882_10952" cx="0" cy="0" r="1" gradientUnits="userSpaceOnUse" gradientTransform="translate(29.7871 18.5022) rotate(-57.265) scale(4.76359 10.449)">
<stop stop-color="#3669D9"/>
<stop offset="1" stop-color="#3669D9" stop-opacity="0"/>
</radialGradient>
<linearGradient id="paint3_linear_882_10952" x1="39.9768" y1="3.16016" x2="37.1721" y2="10.1445" gradientUnits="userSpaceOnUse">
<stop stop-color="#3D89EC"/>
<stop offset="1" stop-color="#3D89EC" stop-opacity="0"/>
</linearGradient>
<linearGradient id="paint4_linear_882_10952" x1="25.108" y1="11.0352" x2="25.6346" y2="11.3273" gradientUnits="userSpaceOnUse">
<stop stop-color="#1A6DD8"/>
<stop offset="1" stop-color="#1A6DD8" stop-opacity="0"/>
</linearGradient>
<linearGradient id="paint5_linear_882_10952" x1="37.6829" y1="23.3402" x2="23.0782" y2="36.6934" gradientUnits="userSpaceOnUse">
<stop stop-color="#EFEAF6"/>
<stop offset="1" stop-color="#B5A8C3"/>
</linearGradient>
<linearGradient id="paint6_linear_882_10952" x1="20.0876" y1="47.9184" x2="23.6282" y2="27.3855" gradientUnits="userSpaceOnUse">
<stop stop-color="#D0A9F4"/>
<stop offset="1" stop-color="#D0A9F4" stop-opacity="0"/>
</linearGradient>
<linearGradient id="paint7_linear_882_10952" x1="37.9423" y1="29.0824" x2="25.5735" y2="29.0824" gradientUnits="userSpaceOnUse">
<stop stop-color="#D3C6E2"/>
<stop offset="1" stop-color="#D6C6E8"/>
</linearGradient>
<linearGradient id="paint8_linear_882_10952" x1="18.1347" y1="34.5348" x2="37.8581" y2="28.566" gradientUnits="userSpaceOnUse">
<stop stop-color="#E0D3EF"/>
<stop offset="1" stop-color="#C1B0D4"/>
</linearGradient>
<radialGradient id="paint9_radial_882_10952" cx="0" cy="0" r="1" gradientUnits="userSpaceOnUse" gradientTransform="translate(30.0713 29.6587) rotate(156.644) scale(17.8078 15.1742)">
<stop offset="0.837" stop-color="#F6ECFE" stop-opacity="0"/>
<stop offset="1" stop-color="#F6ECFE"/>
</radialGradient>
<radialGradient id="paint10_radial_882_10952" cx="0" cy="0" r="1" gradientUnits="userSpaceOnUse" gradientTransform="translate(24.06 32.8602) rotate(-41.294) scale(14.0062 13.4487)">
<stop offset="0.91" stop-color="#B396CF" stop-opacity="0"/>
<stop offset="0.992" stop-color="#B796D5"/>
</radialGradient>
<radialGradient id="paint11_radial_882_10952" cx="0" cy="0" r="1" gradientUnits="userSpaceOnUse" gradientTransform="translate(25.2315 30.4676) rotate(37.9308) scale(13.1859 14.9427)">
<stop offset="0.926" stop-color="#AB9CBB" stop-opacity="0"/>
<stop offset="1" stop-color="#AB9CBB"/>
</radialGradient>
</defs>
</svg>
