<svg width="150" height="150" viewBox="0 0 150 150" fill="none" xmlns="http://www.w3.org/2000/svg">
<rect width="150" height="150" rx="75" fill="#041839"/>
<path d="M116.667 89.5833C116.667 101.09 107.34 110.417 95.8333 110.417C92.1042 110.417 88.6 109.438 85.5708 107.719C82.3628 105.9 79.6942 103.264 77.8372 100.078C75.9803 96.8922 75.0012 93.2709 75 89.5833C75 84.2333 77.0167 79.3542 80.3292 75.6667C82.281 73.4874 84.671 71.7448 87.3427 70.5529C90.0145 69.361 92.9078 68.7466 95.8333 68.75C107.34 68.75 116.667 78.0771 116.667 89.5833Z" stroke="#F2B414" stroke-width="4" stroke-linecap="round" stroke-linejoin="round"/>
<path d="M95.833 50V68.75C92.9075 68.7466 90.0141 69.361 87.3424 70.5529C84.6707 71.7448 82.2807 73.4874 80.3288 75.6667C76.891 79.486 74.9921 84.4447 74.9997 89.5833C75.0009 93.2709 75.9799 96.8922 77.8369 100.078C79.6939 103.264 82.3624 105.9 85.5705 107.719C80.0247 109.396 72.6622 110.417 64.583 110.417C47.3247 110.417 33.333 105.752 33.333 100V50" stroke="#F2B414" stroke-width="4" stroke-linecap="round" stroke-linejoin="round"/>
<path d="M33.333 83.334C33.333 89.0861 47.3247 93.7507 64.583 93.7507C68.3476 93.7507 71.958 93.5298 75.2997 93.1215M33.333 66.6673C33.333 72.4194 47.3247 77.084 64.583 77.084C70.3247 77.084 75.7059 76.5673 80.3288 75.6673M105.208 85.4173L93.7497 96.8757L87.4997 90.6257M95.833 50.0007C95.833 55.7527 81.8413 60.4173 64.583 60.4173C47.3247 60.4173 33.333 55.7527 33.333 50.0007C33.333 44.2486 47.3247 39.584 64.583 39.584C81.8413 39.584 95.833 44.2486 95.833 50.0007Z" stroke="#F2B414" stroke-width="4" stroke-linecap="round" stroke-linejoin="round"/>
</svg>
