<svg xmlns="http://www.w3.org/2000/svg" width="100" height="100" viewBox="0 0 100 100" fill="none">
  <g clip-path="url(#clip0_42_85)">
    <path d="M87.5 31.25H68.75V12.5C68.7481 10.843 68.089 9.25437 66.9173 8.08268C65.7456 6.91099 64.157 6.2519 62.5 6.25H12.5C10.843 6.25207 9.25452 6.91121 8.08287 8.08287C6.91121 9.25452 6.25207 10.843 6.25 12.5V62.5C6.25207 64.157 6.91121 65.7455 8.08287 66.9171C9.25452 68.0888 10.843 68.7479 12.5 68.75H31.25V87.5C31.25 89.1576 31.9085 90.7473 33.0806 91.9194C34.2527 93.0915 35.8424 93.75 37.5 93.75H87.5C89.1576 93.75 90.7473 93.0915 91.9194 91.9194C93.0915 90.7473 93.75 89.1576 93.75 87.5V37.5C93.75 35.8424 93.0915 34.2527 91.9194 33.0806C90.7473 31.9085 89.1576 31.25 87.5 31.25ZM37.5 62.5V37.5H62.5V62.5H37.5ZM12.4963 12.5H62.5V31.25H37.5C35.843 31.2519 34.2544 31.911 33.0827 33.0827C31.911 34.2544 31.2519 35.843 31.25 37.5V62.5H12.5L12.4963 12.5Z" fill="#F2B414"/>
  </g>
  <defs>
    <clipPath id="clip0_42_85">
      <rect width="100" height="100" fill="white"/>
    </clipPath>
  </defs>
</svg>