<svg width="22" height="17" viewBox="0 0 22 17" fill="none" xmlns="http://www.w3.org/2000/svg">
<path d="M20.1343 7.05273H2.81832C2.44291 7.05273 2.09159 7.21434 1.83902 7.48746C1.58766 7.75926 1.45251 8.1201 1.45251 8.48893C1.45251 8.85777 1.58766 9.21861 1.83902 9.49041C2.09159 9.76353 2.44291 9.92513 2.81832 9.92513H20.1343C20.5097 9.92513 20.8611 9.76353 21.1136 9.49041C21.365 9.21861 21.5001 8.85777 21.5001 8.48893C21.5001 8.1201 21.365 7.75926 21.1136 7.48746C20.8611 7.21434 20.5097 7.05273 20.1343 7.05273Z" fill="black" stroke="black"/>
<path d="M3.51079 8.31498L9.31906 2.60678L9.3191 2.60673C9.55351 2.37631 9.68679 2.06195 9.68679 1.73233C9.68679 1.4027 9.55351 1.08835 9.3191 0.857925C9.08499 0.627789 8.76926 0.5 8.44181 0.5C8.11435 0.5 7.79862 0.627789 7.56451 0.857925L0.868531 7.44014C0.868416 7.44025 0.8683 7.44036 0.868184 7.44048C0.868149 7.44051 0.868115 7.44054 0.868081 7.44058C0.752042 7.55447 0.659503 7.69019 0.596177 7.84021C0.53276 7.99044 0.5 8.15181 0.5 8.31498C0.5 8.47816 0.53276 8.63952 0.596177 8.78976C0.659503 8.93977 0.752042 9.07549 0.868081 9.18939C0.868112 9.18942 0.868144 9.18945 0.868175 9.18948C0.868294 9.1896 0.868413 9.18971 0.868531 9.18983L7.56451 15.772C7.79862 16.0022 8.11435 16.13 8.44181 16.13C8.76926 16.13 9.08499 16.0022 9.3191 15.772C9.55351 15.5416 9.68679 15.2273 9.68679 14.8976C9.68679 14.568 9.55351 14.2537 9.3191 14.0232L9.31906 14.0232L3.51079 8.31498Z" fill="black" stroke="black"/>
</svg>
