<svg width="32" height="25" viewBox="0 0 32 25" fill="none" xmlns="http://www.w3.org/2000/svg">
<path d="M30.9868 14.0932L30.6198 13.7537L30.9868 14.0932C31.3194 13.7336 31.5001 13.2537 31.5001 12.7607C31.5001 12.2678 31.3194 11.7879 30.9868 11.4283L30.6211 11.7666L30.9868 11.4283C30.6531 11.0674 30.1917 10.8564 29.7014 10.8564H3.72741C3.23719 10.8564 2.77577 11.0674 2.44201 11.4283C2.10946 11.7879 1.92871 12.2678 1.92871 12.7607C1.92871 13.2537 2.10946 13.7336 2.44201 14.0932C2.77577 14.4541 3.2372 14.665 3.72741 14.665H29.7014C30.1917 14.665 30.6531 14.4541 30.9868 14.0932Z" fill="white" stroke="white"/>
<path d="M4.40952 12.4998L13.3034 3.7592L13.3034 3.75916C13.6077 3.46007 13.7802 3.05258 13.7802 2.62584C13.7802 2.1991 13.6077 1.79161 13.3034 1.49252L12.9565 1.84537L13.3034 1.49252C12.9994 1.19371 12.589 1.02734 12.1627 1.02734C11.7365 1.02734 11.326 1.19371 11.022 1.49252L11.3725 1.84909L11.022 1.49252L0.977828 11.3661C0.977756 11.3661 0.977684 11.3662 0.977612 11.3663C0.826817 11.5142 0.70671 11.6903 0.624586 11.8849C0.542414 12.0795 0.5 12.2885 0.5 12.4998C0.5 12.7111 0.542414 12.9201 0.624585 13.1148C0.706685 13.3092 0.826745 13.4854 0.977473 13.6332L0.977377 13.6331L4.40952 12.4998ZM4.40952 12.4998L13.3034 21.2404L13.3034 21.2405C13.6077 21.5396 13.7802 21.9471 13.7802 22.3738C13.7802 22.8005 13.6077 23.208 13.3034 23.5071C12.9994 23.8059 12.589 23.9723 12.1627 23.9723C11.7365 23.9723 11.326 23.8059 11.022 23.5071L0.977827 13.6336L4.40952 12.4998Z" fill="white" stroke="white"/>
</svg>
