<svg width="36" height="32" viewBox="0 0 36 32" fill="none" xmlns="http://www.w3.org/2000/svg">
<path d="M34.9997 26.3892L21.3357 2.65948C20.9942 2.07811 20.5068 1.59607 19.9216 1.26113C19.3365 0.9262 18.6739 0.75 17.9997 0.75C17.3255 0.75 16.663 0.9262 16.0778 1.26113C15.4927 1.59607 15.0052 2.07811 14.6638 2.65948L0.999723 26.3892C0.671185 26.9515 0.498047 27.591 0.498047 28.2423C0.498047 28.8935 0.671185 29.5331 0.999723 30.0954C1.3368 30.6803 1.82343 31.165 2.40966 31.4997C2.9959 31.8344 3.66064 32.0071 4.33566 32.0001H31.6638C32.3383 32.0066 33.0024 31.8336 33.588 31.4989C34.1736 31.1642 34.6598 30.6798 34.9966 30.0954C35.3256 29.5334 35.4993 28.894 35.4998 28.2427C35.5004 27.5915 35.3278 26.9518 34.9997 26.3892ZM16.7497 13.2501C16.7497 12.9186 16.8814 12.6006 17.1158 12.3662C17.3503 12.1318 17.6682 12.0001 17.9997 12.0001C18.3312 12.0001 18.6492 12.1318 18.8836 12.3662C19.118 12.6006 19.2497 12.9186 19.2497 13.2501V19.5001C19.2497 19.8316 19.118 20.1496 18.8836 20.384C18.6492 20.6184 18.3312 20.7501 17.9997 20.7501C17.6682 20.7501 17.3503 20.6184 17.1158 20.384C16.8814 20.1496 16.7497 19.8316 16.7497 19.5001V13.2501ZM17.9997 27.0001C17.6289 27.0001 17.2664 26.8901 16.958 26.6841C16.6497 26.4781 16.4094 26.1852 16.2675 25.8426C16.1255 25.5 16.0884 25.123 16.1608 24.7593C16.2331 24.3956 16.4117 24.0615 16.6739 23.7993C16.9361 23.5371 17.2702 23.3585 17.6339 23.2861C17.9976 23.2138 18.3746 23.2509 18.7173 23.3928C19.0599 23.5347 19.3527 23.7751 19.5587 24.0834C19.7648 24.3918 19.8747 24.7543 19.8747 25.1251C19.8747 25.6224 19.6772 26.0993 19.3255 26.4509C18.9739 26.8026 18.497 27.0001 17.9997 27.0001Z" fill="white"/>
</svg>
