<svg width="18" height="18" viewBox="0 0 18 18" fill="none" xmlns="http://www.w3.org/2000/svg">
<path d="M17.0995 3.74955L0.898996 3.74955C0.734976 3.74998 0.5742 3.78768 0.433975 3.85859C0.293751 3.9295 0.179388 4.03093 0.103199 4.15197C0.0270081 4.27301 -0.00812721 4.40907 0.00157928 4.54552C0.0112839 4.68196 0.0654602 4.81361 0.158276 4.9263L8.25851 14.6763C8.59422 15.0806 9.40244 15.0806 9.73905 14.6763L17.8393 4.9263C17.933 4.81385 17.988 4.68213 17.9983 4.54546C18.0085 4.40879 17.9736 4.2724 17.8973 4.1511C17.8211 4.0298 17.7064 3.92824 17.5657 3.85745C17.425 3.78665 17.2638 3.74934 17.0995 3.74955Z" fill="black"/>
</svg>
