<svg xmlns="http://www.w3.org/2000/svg" width="39" height="29" viewBox="0 0 39 29" fill="none">
  <path d="M19.5 21.5C18.2947 21.5 17.0894 21.1046 16.0613 20.3034L0.833374 8.4625V25C0.833374 26.9323 2.40035 28.5 4.33337 28.5H34.6667C36.5997 28.5 38.1667 26.933 38.1667 25V8.4625L22.9417 20.3115C21.9136 21.1063 20.7032 21.5 19.5 21.5ZM2.02119 6.42812L17.4941 18.4667C18.6746 19.3854 20.3284 19.3854 21.5089 18.4667L36.9818 6.42812C37.6636 5.84479 38.1667 4.94792 38.1667 4C38.1667 2.06698 36.599 0.5 34.6667 0.5H4.33337C2.40035 0.5 0.833374 2.06698 0.833374 4C0.833374 4.94792 1.2716 5.84479 2.02119 6.42812Z" fill="#0C429F"/>
</svg>