<svg xmlns="http://www.w3.org/2000/svg" width="36" height="35" viewBox="0 0 36 35" fill="none">
  <path d="M18.3334 0C23.0881 0 23.6814 0.0174999 25.5469 0.105C27.4106 0.1925 28.6794 0.48475 29.7959 0.91875C30.9509 1.36325 31.9239 1.96525 32.8969 2.9365C33.7867 3.81132 34.4753 4.86953 34.9146 6.0375C35.3469 7.15225 35.6409 8.42275 35.7284 10.2865C35.8106 12.152 35.8334 12.7452 35.8334 17.5C35.8334 22.2547 35.8159 22.848 35.7284 24.7135C35.6409 26.5772 35.3469 27.846 34.9146 28.9625C34.4766 30.1311 33.7878 31.1896 32.8969 32.0635C32.0218 32.9531 30.9637 33.6416 29.7959 34.0812C28.6811 34.5135 27.4106 34.8075 25.5469 34.895C23.6814 34.9772 23.0881 35 18.3334 35C13.5786 35 12.9854 34.9825 11.1199 34.895C9.25612 34.8075 7.98737 34.5135 6.87087 34.0812C5.70244 33.6428 4.64405 32.9541 3.76987 32.0635C2.87983 31.1888 2.19125 30.1306 1.75212 28.9625C1.31812 27.8477 1.02587 26.5772 0.938374 24.7135C0.856124 22.848 0.833374 22.2547 0.833374 17.5C0.833374 12.7452 0.850874 12.152 0.938374 10.2865C1.02587 8.421 1.31812 7.154 1.75212 6.0375C2.19004 4.86881 2.87878 3.81031 3.76987 2.9365C4.6443 2.04615 5.70262 1.35753 6.87087 0.91875C7.98737 0.48475 9.25437 0.1925 11.1199 0.105C12.9854 0.0227499 13.5786 0 18.3334 0ZM18.3334 8.75C16.0127 8.75 13.7871 9.67187 12.1462 11.3128C10.5052 12.9538 9.58337 15.1794 9.58337 17.5C9.58337 19.8206 10.5052 22.0462 12.1462 23.6872C13.7871 25.3281 16.0127 26.25 18.3334 26.25C20.654 26.25 22.8796 25.3281 24.5206 23.6872C26.1615 22.0462 27.0834 19.8206 27.0834 17.5C27.0834 15.1794 26.1615 12.9538 24.5206 11.3128C22.8796 9.67187 20.654 8.75 18.3334 8.75ZM29.7084 8.3125C29.7084 7.73234 29.4779 7.17594 29.0677 6.7657C28.6574 6.35547 28.101 6.125 27.5209 6.125C26.9407 6.125 26.3843 6.35547 25.9741 6.7657C25.5638 7.17594 25.3334 7.73234 25.3334 8.3125C25.3334 8.89266 25.5638 9.44906 25.9741 9.85929C26.3843 10.2695 26.9407 10.5 27.5209 10.5C28.101 10.5 28.6574 10.2695 29.0677 9.85929C29.4779 9.44906 29.7084 8.89266 29.7084 8.3125ZM18.3334 12.25C19.7258 12.25 21.0611 12.8031 22.0457 13.7877C23.0302 14.7723 23.5834 16.1076 23.5834 17.5C23.5834 18.8924 23.0302 20.2277 22.0457 21.2123C21.0611 22.1969 19.7258 22.75 18.3334 22.75C16.941 22.75 15.6056 22.1969 14.6211 21.2123C13.6365 20.2277 13.0834 18.8924 13.0834 17.5C13.0834 16.1076 13.6365 14.7723 14.6211 13.7877C15.6056 12.8031 16.941 12.25 18.3334 12.25Z" fill="#0C429F"/>
</svg>