<svg width="150" height="151" viewBox="0 0 150 151" fill="none" xmlns="http://www.w3.org/2000/svg">
<rect y="0.359375" width="150" height="150" rx="75" fill="#041839"/>
<path d="M87.9424 49.7932V74.5451H80.9477V49.7932C80.9477 40.3805 73.7984 32.7268 65.0039 32.7268C56.2094 32.7268 49.0602 40.3805 49.0602 49.7932V74.5451H42.0654V49.7932C42.0654 36.3128 52.3553 25.3594 65.0039 25.3594C77.6526 25.3594 87.9424 36.3128 87.9424 49.7932Z" fill="#EBEBEB"/>
<path d="M42.0654 56.2285L49.0602 56.5103V74.5448H42.0654V56.2285Z" fill="#263238"/>
<path d="M87.942 58.0969V74.5451H80.9473V57.8105L87.942 58.0969Z" fill="#263238"/>
<path d="M96.7322 60.3555H33.1025V106.714H96.7322V60.3555Z" fill="#FFC727"/>
<path opacity="0.1" d="M96.7328 60.3555H64.918V106.714H96.7328V60.3555Z" fill="black"/>
<path d="M67.6942 85.1547L70.368 95.3531H59.0078L61.6862 85.1547C60.6388 84.6304 59.8325 83.8463 59.3892 82.9211C58.9459 81.996 58.8898 80.98 59.2292 80.0268C59.5686 79.0737 60.2851 78.2353 61.2704 77.6385C62.2557 77.0416 63.4562 76.7188 64.6902 76.7188C65.9242 76.7188 67.1246 77.0416 68.1099 77.6385C69.0952 78.2353 69.8118 79.0737 70.1512 80.0268C70.4906 80.98 70.4344 81.996 69.9911 82.9211C69.5478 83.8463 68.7415 84.6304 67.6942 85.1547Z" fill="#263238"/>
<path d="M116.898 87.4199C116.898 87.4199 113.927 111.208 109.044 116.568C103.183 122.988 98.9237 122.049 96.5595 125.361C94.1952 122.045 89.9405 122.988 84.0704 116.564C79.1881 111.208 76.2207 87.4159 76.2207 87.4159C89.0863 81.1734 96.5676 74.1738 96.5676 74.1738C96.7902 74.3924 104.231 81.2746 116.898 87.4199Z" fill="#EBEBEB"/>
<path d="M96.5673 74.1779V125.357C94.2031 122.041 89.9483 122.984 84.0782 116.56C79.1959 111.204 76.2285 87.4118 76.2285 87.4118C89.086 81.1734 96.5673 74.1738 96.5673 74.1738V74.1779Z" fill="#DBDBDB"/>
<path d="M113.744 89.3401C113.744 89.3401 111.234 109.432 107.109 113.958C102.15 119.391 98.555 118.593 96.5551 121.391C94.5552 118.593 90.9603 119.391 86.0052 113.958C81.8799 109.432 79.374 89.3401 79.374 89.3401C90.2438 84.0773 96.5551 78.1465 96.5551 78.1465C96.5551 78.1465 102.875 84.0611 113.744 89.3401Z" fill="#DBDBDB"/>
<path d="M79.3779 89.3379C79.3779 89.3379 81.8879 109.43 86.0131 113.956C90.9642 119.384 94.5429 118.591 96.5671 121.38V78.1523C96.3687 78.3305 90.0898 84.1398 79.3779 89.3379Z" fill="#C7C7C7"/>
<rect x="87.6104" y="90.4434" width="17.8981" height="17.8981" rx="8.94906" fill="#FFC727"/>
<path d="M95.9378 105.902C95.1092 105.814 94.338 105.588 93.6242 105.223C92.9103 104.858 92.2889 104.384 91.76 103.801C91.231 103.217 90.8139 102.549 90.5087 101.797C90.2034 101.045 90.0508 100.244 90.0508 99.3932C90.0508 98.4011 90.2498 97.4853 90.648 96.6459C91.0461 95.8065 91.5884 95.0869 92.2748 94.4873H90.7049V93.1791H94.6296V97.1038H93.3213V95.3213C92.7217 95.801 92.2449 96.3925 91.8908 97.0959C91.5367 97.7993 91.3594 98.5651 91.359 99.3932C91.359 100.734 91.7979 101.893 92.6757 102.868C93.5535 103.844 94.6409 104.414 95.9378 104.577V105.902ZM95.6598 102.402L92.8962 99.6221L93.8119 98.7064L95.6598 100.554L99.3719 96.8421L100.288 97.7742L95.6598 102.402ZM98.5542 105.607V101.683H99.8624V103.465C100.462 102.974 100.939 102.38 101.294 101.683C101.648 100.985 101.825 100.222 101.825 99.3932C101.825 98.0522 101.386 96.894 100.508 95.9185C99.6302 94.943 98.5429 94.3733 97.246 94.2093V92.8848C98.9031 93.0483 100.299 93.746 101.432 94.9779C102.566 96.2098 103.133 97.6816 103.133 99.3932C103.133 100.385 102.934 101.301 102.536 102.14C102.138 102.98 101.595 103.699 100.909 104.299H102.479V105.607H98.5542Z" fill="#041839"/>
</svg>
