<svg xmlns="http://www.w3.org/2000/svg" width="33" height="32" viewBox="0 0 33 32" fill="none">
  <path d="M29.8333 24.0064C29.8333 24.7392 29.2392 25.3333 28.5064 25.3333H17.8269C17.0941 25.3333 16.5 24.7392 16.5 24.0064C16.5 23.2736 17.0941 22.6795 17.8269 22.6795H28.5064C29.2392 22.6795 29.8333 23.2736 29.8333 24.0064Z" fill="#F2B414"/>
  <path d="M29.8333 16.0003C29.8333 16.7332 29.2392 17.3272 28.5064 17.3272H4.49355C3.76071 17.3272 3.16663 16.7332 3.16663 16.0003C3.16663 15.2675 3.76071 14.6735 4.49355 14.6735H28.5064C29.2392 14.6735 29.8333 15.2675 29.8333 16.0003Z" fill="#F2B414"/>
  <path d="M28.5064 9.32052C29.2392 9.32052 29.8333 8.72643 29.8333 7.99359C29.8333 7.26075 29.2392 6.66667 28.5064 6.66667H12.4935C11.7607 6.66667 11.1666 7.26075 11.1666 7.99359C11.1666 8.72643 11.7607 9.32052 12.4935 9.32052H28.5064Z" fill="#F2B414"/>
</svg>