<svg width="81" height="81" viewBox="0 0 81 81" fill="none" xmlns="http://www.w3.org/2000/svg">
<circle cx="40.5" cy="40.5957" r="40" fill="#F1F1F1"/>
<path d="M27.1667 51.5957H30.5V58.3974L39.0017 51.5957H47.1667C49.005 51.5957 50.5 50.1007 50.5 48.2624V34.929C50.5 33.0907 49.005 31.5957 47.1667 31.5957H27.1667C25.3283 31.5957 23.8333 33.0907 23.8333 34.929V48.2624C23.8333 50.1007 25.3283 51.5957 27.1667 51.5957Z" fill="#F2B414"/>
<path d="M53.8333 24.9291H33.8333C31.995 24.9291 30.5 26.4241 30.5 28.2624H50.5C52.3383 28.2624 53.8333 29.7574 53.8333 31.5957V44.9291C55.6717 44.9291 57.1667 43.4341 57.1667 41.5957V28.2624C57.1667 26.4241 55.6717 24.9291 53.8333 24.9291Z" fill="#F2B414"/>
</svg>
