<svg width="22" height="22" viewBox="0 0 22 22" fill="none" xmlns="http://www.w3.org/2000/svg">
<path d="M6.41666 9.19307C6.84879 9.16667 7.38153 9.16667 8.06666 9.16667H13.9333C14.6184 9.16667 15.1512 9.16667 15.5833 9.19307M6.41666 9.19307C5.87736 9.22598 5.49476 9.30004 5.16818 9.46642C4.65073 9.73005 4.23004 10.1507 3.96639 10.6682C3.66666 11.2565 3.66666 12.0265 3.66666 13.5667V14.85C3.66666 16.3902 3.66666 17.1602 3.96639 17.7485C4.23004 18.266 4.65073 18.6866 5.16818 18.9503C5.75644 19.25 6.52651 19.25 8.06666 19.25H13.9333C15.4735 19.25 16.2435 19.25 16.8318 18.9503C17.3493 18.6866 17.7699 18.266 18.0336 17.7485C18.3333 17.1602 18.3333 16.3902 18.3333 14.85V13.5667C18.3333 12.0265 18.3333 11.2565 18.0336 10.6682C17.7699 10.1507 17.3493 9.73005 16.8318 9.46642C16.5052 9.30004 16.1226 9.22598 15.5833 9.19307M6.41666 9.19307V7.33333C6.41666 4.80203 8.46869 2.75 11 2.75C13.5313 2.75 15.5833 4.80203 15.5833 7.33333V9.19307" stroke="#6B6B6B" stroke-width="2" stroke-linecap="round" stroke-linejoin="round"/>
</svg>
