<svg width="20" height="20" viewBox="0 0 20 20" fill="none" xmlns="http://www.w3.org/2000/svg">
<g clip-path="url(#clip0_660_373)">
<path d="M8.60421 12.3022C7.56458 11.9996 6.6512 11.3679 6.00129 10.5019C5.35138 9.63593 5.00003 8.58242 5.00004 7.49967V0.833008H15V8.33301M5.00004 2.49967H0.833374V5.83301C0.833374 7.92384 2.32587 9.16634 4.16671 9.16634H5.00004M16.695 9.07051C18.1184 8.74134 19.1667 7.58551 19.1667 5.83301V2.49967H15M8.33337 15.833H4.16671V19.1663H13.75M13.75 19.1663C12.3135 19.1663 10.9357 18.5957 9.91988 17.5798C8.90406 16.564 8.33337 15.1863 8.33337 13.7497C8.33337 12.3131 8.90406 10.9353 9.91988 9.91951C10.9357 8.90369 12.3135 8.33301 13.75 8.33301C15.1866 8.33301 16.5644 8.90369 17.5802 9.91951C18.596 10.9353 19.1667 12.3131 19.1667 13.7497C19.1667 15.1863 18.596 16.564 17.5802 17.5798C16.5644 18.5957 15.1866 19.1663 13.75 19.1663ZM16.6667 11.6663L12.9167 15.4163L10.8334 13.333M8.50504 12.853C7.95237 13.1303 7.48774 13.5559 7.16309 14.0822C6.83844 14.6085 6.66657 15.2147 6.66671 15.833" stroke="white" stroke-width="2"/>
</g>
<defs>
<clipPath id="clip0_660_373">
<rect width="20" height="20" fill="white"/>
</clipPath>
</defs>
</svg>
