<svg width="22" height="22" viewBox="0 0 22 22" fill="none" xmlns="http://www.w3.org/2000/svg">
<path d="M5.23154 18.0652L18.0649 5.23184C18.4228 4.87386 18.4228 4.29346 18.0649 3.93547C17.7069 3.5775 17.1265 3.5775 16.7685 3.93547L3.93517 16.7688C3.57719 17.1268 3.57719 17.7072 3.93517 18.0652C4.29316 18.4231 4.87355 18.4231 5.23154 18.0652Z" fill="#6B6B6B"/>
<path d="M11 4.58301C12.101 4.58301 13.1945 4.77882 14.2415 5.16541L12.7754 6.63159C12.1873 6.48757 11.592 6.41634 11 6.41634C8.31707 6.41634 5.56288 7.87947 3.75073 10.9526C4.35076 12.0068 5.06161 12.8752 5.84324 13.5637L4.54523 14.8617C3.56275 13.977 2.69019 12.8669 1.98025 11.5383C1.78162 11.1666 1.78415 10.7104 1.98917 10.3403C4.08644 6.55555 7.50544 4.58301 11 4.58301Z" fill="#6B6B6B"/>
<path d="M11 8.25C11.0513 8.25 11.1024 8.25141 11.1531 8.25419L8.25419 11.1531C8.25141 11.1024 8.25 11.0513 8.25 11C8.25 9.48117 9.48117 8.25 11 8.25Z" fill="#6B6B6B"/>
<path d="M13.7458 10.8467L10.8469 13.7455C10.8976 13.7484 10.9487 13.7498 11 13.7498C12.5188 13.7498 13.75 12.5186 13.75 10.9998C13.75 10.9484 13.7486 10.8974 13.7458 10.8467Z" fill="#6B6B6B"/>
<path d="M11 15.5831C10.4087 15.5831 9.81392 15.5112 9.22661 15.3659L7.76239 16.8301C8.80744 17.2193 9.89981 17.4164 11 17.4164C14.5174 17.4164 17.9558 15.401 20.0197 11.5384C20.2184 11.1667 20.2158 10.7105 20.0108 10.3404C19.2998 9.05726 18.4367 7.98239 17.4705 7.12207L16.1719 8.4206C16.9434 9.09106 17.6481 9.93333 18.2493 10.9528C16.4629 14.0911 13.6941 15.5831 11 15.5831Z" fill="#6B6B6B"/>
</svg>
