<svg width="24" height="22" viewBox="0 0 24 22" fill="none" xmlns="http://www.w3.org/2000/svg">
<g id="tabler:school">
<path id="Vector" d="M18.6667 8H16.4444C15.7778 8 15.3333 8.4 15.3333 9C15.3333 9.6 15.7778 10 16.4444 10H18.6667C19.3333 10 19.7778 10.4 19.7778 11V18C19.7778 18.6 19.3333 19 18.6667 19H5.33333C4.66667 19 4.22222 18.6 4.22222 18V11C4.22222 10.4 4.66667 10 5.33333 10H7.55556C8.22222 10 8.66667 9.6 8.66667 9C8.66667 8.4 8.22222 8 7.55556 8H5.33333C3.44444 8 2 9.3 2 11V18C2 19.7 3.44444 21 5.33333 21H18.6667C20.5556 21 22 19.7 22 18V11C22 9.3 20.5556 8 18.6667 8ZM9.44444 5.7L10.8889 4.4V16C10.8889 16.6 11.3333 17 12 17C12.6667 17 13.1111 16.6 13.1111 16V4.4L14.5556 5.7C14.7778 5.9 15 6 15.3333 6C15.6667 6 15.8889 5.9 16.1111 5.7C16.5556 5.3 16.5556 4.7 16.1111 4.3L12.7778 1.3C12.3333 0.9 11.6667 0.9 11.2222 1.3L7.88889 4.3C7.44445 4.7 7.44445 5.3 7.88889 5.7C8.33333 6.1 9 6.1 9.44444 5.7Z" fill="white"/>
</g>
</svg>
