<svg width="150" height="150" viewBox="0 0 150 150" fill="none" xmlns="http://www.w3.org/2000/svg">
<rect width="150" height="150" rx="75" fill="#041839"/>
<path d="M36.6266 64.704L111.643 64.0059L113.838 114.999L36.1611 114.444L36.6266 64.704Z" fill="#FFC100"/>
<path d="M36.627 64.7146L72.0645 35.915C72.7925 35.3231 73.7021 35 74.6404 35C75.5786 35 76.4882 35.3231 77.2162 35.915L111.638 64.0112" fill="#FFC100"/>
<g opacity="0.3">
<path d="M36.626 64.7146L72.0636 35.915C72.7916 35.3231 73.7012 35 74.6394 35C75.5776 35 76.4872 35.3231 77.2152 35.915L111.637 64.0112" fill="black"/>
</g>
<path d="M36.1612 114.433C36.0712 114.343 42.0586 107.774 49.5428 99.7609C57.027 91.7478 63.1731 85.3426 63.2683 85.4167C63.3635 85.4907 57.3708 92.0705 49.8813 100.089C42.3918 108.107 36.2564 114.528 36.1612 114.433Z" fill="#263238"/>
<path d="M113.839 114.999C113.744 115.089 107.883 108.652 100.748 100.682C93.613 92.7107 87.906 86.1362 88.0012 86.0516C88.0964 85.967 93.9568 92.3986 101.097 100.375C108.238 108.351 113.934 114.915 113.839 114.999Z" fill="#263238"/>
<g opacity="0.5">
<path d="M111.643 64.0059L74.0364 94.1754L36.626 64.704" fill="black"/>
</g>
<path d="M40.4141 67.4846C40.4141 67.4846 40.631 67.638 41.0382 67.95L42.826 69.3305L49.6279 74.6197C55.4883 79.1949 63.9087 85.727 74.101 93.7031H73.9635L106.635 67.6962L106.587 67.8072C106.434 63.1051 106.275 58.1703 106.116 53.1509C106.005 49.7711 105.9 46.4283 105.794 43.1543L105.931 43.2865L40.2502 44.1539L40.3348 44.064C40.3665 51.4319 40.3983 57.287 40.4141 61.2962C40.4141 63.3008 40.4141 64.8453 40.4141 65.8978C40.4141 66.4267 40.4141 66.8128 40.4141 67.0879C40.4141 67.3629 40.4141 67.4952 40.4141 67.4952C40.4141 67.4952 40.4141 67.3629 40.4141 67.0985C40.4141 66.834 40.4141 66.432 40.4141 65.919C40.4141 64.8611 40.3824 63.3273 40.3612 61.328C40.3242 57.3029 40.266 51.4477 40.1973 44.064V43.9794H40.2819L105.926 43.0273H106.064V43.1649C106.169 46.4389 106.275 49.7764 106.386 53.1561C106.545 58.1756 106.704 63.1104 106.852 67.8125V67.8813L106.799 67.9236L74.0904 93.8935L74.0217 93.9517L73.9529 93.8935L49.5062 74.7096L42.7572 69.3887L40.9959 67.9923L40.4141 67.4846Z" fill="#263238"/>
<path d="M40.4144 67.4834L40.2451 44.0523L105.932 43.1426L106.72 67.7902L74.0325 93.776L40.4144 67.4834Z" fill="#FAFAFA"/>
<path d="M95.5757 54.9582C95.5757 55.0322 85.5262 55.175 73.1389 55.2755C60.7516 55.376 50.7021 55.3972 50.7021 55.3231C50.7021 55.2491 60.7516 55.1063 73.1389 55.0005C85.5262 54.8947 95.5757 54.8788 95.5757 54.9582Z" fill="#263238"/>
<path d="M95.586 61.5735C95.586 61.6475 85.5365 61.7956 73.1545 61.8961C60.7725 61.9966 50.7178 62.0178 50.7178 61.9384C50.7178 61.8591 60.7672 61.7216 73.1545 61.6211C85.5418 61.5206 95.586 61.4994 95.586 61.5735Z" fill="#263238"/>
<path d="M95.6016 69.2024C95.6016 69.2817 85.5522 69.4245 73.1701 69.525C60.7881 69.6255 50.7334 69.6467 50.7334 69.5673C50.7334 69.488 60.7829 69.3505 73.1701 69.25C85.5574 69.1495 95.6016 69.1283 95.6016 69.2024Z" fill="#263238"/>
<path d="M95.6179 76.8297C95.6179 76.909 86.0392 77.0466 74.2179 77.1418C62.3965 77.237 52.8125 77.2581 52.8125 77.1788C52.8125 77.0995 62.3912 76.9619 74.2179 76.8667C86.0445 76.7715 95.6179 76.7557 95.6179 76.8297Z" fill="#263238"/>
<path d="M87.24 83.5421C87.154 83.5661 87.0648 83.5768 86.9756 83.5738L86.2192 83.6055L83.4477 83.6743L74.2921 83.8436C70.7166 83.907 67.4743 83.9282 65.1312 83.9282H62.3597H61.6033C61.5144 83.9305 61.4256 83.9216 61.3389 83.9017C61.4249 83.8777 61.5141 83.867 61.6033 83.87L62.3544 83.8383L65.1312 83.7695L74.2868 83.6055C77.8623 83.5368 81.0993 83.5156 83.4424 83.5156H86.2192H86.9756C87.0644 83.5157 87.153 83.5246 87.24 83.5421Z" fill="#263238"/>
<path d="M78.7774 89.9951C77.1949 90.1376 75.6054 90.187 74.0171 90.1431C72.4292 90.1933 70.8398 90.1509 69.2568 90.0162C70.8395 89.8769 72.4288 89.8274 74.0171 89.8681C75.605 89.8212 77.1943 89.8635 78.7774 89.9951Z" fill="#263238"/>
</svg>
